<?xml version="1.0" encoding="UTF-8" standalone="no"?><svg xmlns="http://www.w3.org/2000/svg" xmlns:xlink="http://www.w3.org/1999/xlink" clip-rule="evenodd" stroke-miterlimit="10" viewBox="0 0 1024 768"><desc>SVG generated by Keynote</desc><defs></defs><g transform="matrix(1.00, 0.00, -0.00, -1.00, 0.0, 768.0)"><path d="M 0.0 768.0 L 1024.0 768.0 L 1024.0 0.0 L 0.0 0.0 Z M 0.0 768.0 " fill="#FEFFFF"></path><image xlink:href="../../0099E750-43F4-4A1E-80C1-2076B752852F/assets/07D070F1F14A22F96AE4D30409DDE93E.png" width="1097.00" height="122.00" transform="matrix(0.93, 0.00, -0.00, -0.93, 0.0, 112.9)"></image><image xlink:href="../../0099E750-43F4-4A1E-80C1-2076B752852F/assets/ECA48F0F87CD79067F902164A110ABCE.png" width="2000.00" height="676.00" transform="matrix(0.08, 0.00, -0.00, -0.08, 836.9, 166.8)"></image><image xlink:href="../../0099E750-43F4-4A1E-80C1-2076B752852F/assets/71AF09E17046C42938E7FCF82766A0C8.png" width="900.00" height="506.00" transform="matrix(1.14, 0.00, -0.00, -1.14, -2.0, 1318.7)"></image><image xlink:href="../../F8A0AFBC-A9D3-465F-9C1C-EDAF964F85E3/assets/FD6BB028758679A2A9D03AFA9AF2FCA1.png" width="300.00" height="395.00" transform="matrix(1.17, 0.00, -0.00, -1.17, 46.0, 664.9)"></image><image xlink:href="../../F8A0AFBC-A9D3-465F-9C1C-EDAF964F85E3/assets/05F71AF187B15D36A40ECF4E4CE1817F.png" width="500.00" height="355.00" transform="matrix(1.20, 0.00, -0.00, -1.20, 384.8, 626.2)"></image><text xml:space="preserve" font-family="Helvetica-Light,Helvetica" font-size="26.0" fill="#28A9E0" transform="matrix(1.00, 0.00, -0.00, -1.00, 16.7, 129.8)">F</text><text xml:space="preserve" font-family="Helvetica-Light,Helvetica" font-size="26.0" fill="#28A9E0" transform="matrix(1.00, 0.00, -0.00, -1.00, 31.1, 129.8)">u</text><text xml:space="preserve" font-family="Helvetica-Light,Helvetica" font-size="26.0" fill="#28A9E0" transform="matrix(1.00, 0.00, -0.00, -1.00, 45.6, 129.8)">e</text><text xml:space="preserve" font-family="Helvetica-Light,Helvetica" font-size="26.0" fill="#28A9E0" transform="matrix(1.00, 0.00, -0.00, -1.00, 60.0, 129.8)">n</text><text xml:space="preserve" font-family="Helvetica-Light,Helvetica" font-size="26.0" fill="#28A9E0" transform="matrix(1.00, 0.00, -0.00, -1.00, 74.5, 129.8)">t</text><text xml:space="preserve" font-family="Helvetica-Light,Helvetica" font-size="26.0" fill="#28A9E0" transform="matrix(1.00, 0.00, -0.00, -1.00, 81.7, 129.8)">e</text><text xml:space="preserve" font-family="Helvetica-Light,Helvetica" font-size="26.0" fill="#28A9E0" transform="matrix(1.00, 0.00, -0.00, -1.00, 96.2, 129.8)">:</text><text xml:space="preserve" font-family="Helvetica-Light,Helvetica" font-size="26.0" fill="#28A9E0" transform="matrix(1.00, 0.00, -0.00, -1.00, 103.4, 129.8)"> </text><text xml:space="preserve" font-family="Helvetica-Light,Helvetica" font-size="26.0" fill="#28A9E0" transform="matrix(1.00, 0.00, -0.00, -1.00, 110.6, 129.8)">I</text><text xml:space="preserve" font-family="Helvetica-Light,Helvetica" font-size="26.0" fill="#28A9E0" transform="matrix(1.00, 0.00, -0.00, -1.00, 117.9, 129.8)">D</text><text xml:space="preserve" font-family="Helvetica-Light,Helvetica" font-size="26.0" fill="#28A9E0" transform="matrix(1.00, 0.00, -0.00, -1.00, 136.6, 129.8)">C</text><text xml:space="preserve" font-family="HelveticaNeue-Light,Helvetica Neue" font-size="28.0" fill="#FEFFFE" transform="matrix(1.00, 0.00, -0.00, -1.00, 848.3, 4.9)">#</text><text xml:space="preserve" font-family="HelveticaNeue-Light,Helvetica Neue" font-size="28.0" fill="#FEFFFE" transform="matrix(1.00, 0.00, -0.00, -1.00, 863.9, 4.9)">D</text><text xml:space="preserve" font-family="HelveticaNeue-Light,Helvetica Neue" font-size="28.0" fill="#FEFFFE" transform="matrix(1.00, 0.00, -0.00, -1.00, 883.1, 4.9)">e</text><text xml:space="preserve" font-family="HelveticaNeue-Light,Helvetica Neue" font-size="28.0" fill="#FEFFFE" transform="matrix(1.00, 0.00, -0.00, -1.00, 897.6, 4.9)">v</text><text xml:space="preserve" font-family="HelveticaNeue-Light,Helvetica Neue" font-size="28.0" fill="#FEFFFE" transform="matrix(1.00, 0.00, -0.00, -1.00, 910.6, 4.9)">F</text><text xml:space="preserve" font-family="HelveticaNeue-Light,Helvetica Neue" font-size="28.0" fill="#FEFFFE" transform="matrix(1.00, 0.00, -0.00, -1.00, 925.6, 4.9)">e</text><text xml:space="preserve" font-family="HelveticaNeue-Light,Helvetica Neue" font-size="28.0" fill="#FEFFFE" transform="matrix(1.00, 0.00, -0.00, -1.00, 940.1, 4.9)">s</text><text xml:space="preserve" font-family="HelveticaNeue-Light,Helvetica Neue" font-size="28.0" fill="#FEFFFE" transform="matrix(1.00, 0.00, -0.00, -1.00, 953.6, 4.9)">t</text><text xml:space="preserve" font-family="HelveticaNeue-Light,Helvetica Neue" font-size="28.0" fill="#FEFFFE" transform="matrix(1.00, 0.00, -0.00, -1.00, 961.9, 4.9)">G</text><text xml:space="preserve" font-family="HelveticaNeue-Light,Helvetica Neue" font-size="28.0" fill="#FEFFFE" transform="matrix(1.00, 0.00, -0.00, -1.00, 982.6, 4.9)">R</text><text xml:space="preserve" font-family="HelveticaNeue-Light,Helvetica Neue" font-size="28.0" fill="#FEFFFE" transform="matrix(1.00, 0.00, -0.00, -1.00, 1001.3, 4.9)">X</text></g></svg>