<?xml version="1.0" encoding="UTF-8" standalone="no"?><svg xmlns="http://www.w3.org/2000/svg" xmlns:xlink="http://www.w3.org/1999/xlink" clip-rule="evenodd" stroke-miterlimit="10" viewBox="0 0 1024 768"><desc>SVG generated by Keynote</desc><defs></defs><g transform="matrix(1.00, 0.00, -0.00, -1.00, 0.0, 768.0)"><path d="M 0.0 768.0 L 1024.0 768.0 L 1024.0 0.0 L 0.0 0.0 Z M 0.0 768.0 " fill="#FEFFFF"></path><image xlink:href="../../0099E750-43F4-4A1E-80C1-2076B752852F/assets/07D070F1F14A22F96AE4D30409DDE93E.png" width="1097.00" height="122.00" transform="matrix(0.93, 0.00, -0.00, -0.93, 0.0, 112.9)"></image><image xlink:href="../../0099E750-43F4-4A1E-80C1-2076B752852F/assets/71AF09E17046C42938E7FCF82766A0C8.png" width="900.00" height="506.00" transform="matrix(1.14, 0.00, -0.00, -1.14, -2.0, 1318.7)"></image><text xml:space="preserve" font-family="Helvetica-Light,Helvetica" font-size="36.0" fill="#000000" transform="matrix(1.00, 0.00, -0.00, -1.00, 284.9, 652.1)">L</text><text xml:space="preserve" font-family="Helvetica-Light,Helvetica" font-size="36.0" fill="#000000" transform="matrix(1.00, 0.00, -0.00, -1.00, 305.0, 652.1)">a</text><text xml:space="preserve" font-family="Helvetica-Light,Helvetica" font-size="36.0" fill="#000000" transform="matrix(1.00, 0.00, -0.00, -1.00, 325.0, 652.1)"> </text><text xml:space="preserve" font-family="Helvetica-Light,Helvetica" font-size="36.0" fill="#000000" transform="matrix(1.00, 0.00, -0.00, -1.00, 335.0, 652.1)">p</text><text xml:space="preserve" font-family="Helvetica-Light,Helvetica" font-size="36.0" fill="#000000" transform="matrix(1.00, 0.00, -0.00, -1.00, 357.0, 652.1)">i</text><text xml:space="preserve" font-family="Helvetica-Light,Helvetica" font-size="36.0" fill="#000000" transform="matrix(1.00, 0.00, -0.00, -1.00, 365.0, 652.1)">l</text><text xml:space="preserve" font-family="Helvetica-Light,Helvetica" font-size="36.0" fill="#000000" transform="matrix(1.00, 0.00, -0.00, -1.00, 373.0, 652.1)">a</text><text xml:space="preserve" font-family="Helvetica-Light,Helvetica" font-size="36.0" fill="#000000" transform="matrix(1.00, 0.00, -0.00, -1.00, 393.0, 652.1)"> </text><text xml:space="preserve" font-family="Helvetica-Light,Helvetica" font-size="36.0" fill="#000000" transform="matrix(1.00, 0.00, -0.00, -1.00, 403.0, 652.1)">d</text><text xml:space="preserve" font-family="Helvetica-Light,Helvetica" font-size="36.0" fill="#000000" transform="matrix(1.00, 0.00, -0.00, -1.00, 425.0, 652.1)">e</text><text xml:space="preserve" font-family="Helvetica-Light,Helvetica" font-size="36.0" fill="#000000" transform="matrix(1.00, 0.00, -0.00, -1.00, 445.0, 652.1)"> </text><text xml:space="preserve" font-family="Helvetica-Light,Helvetica" font-size="36.0" fill="#000000" transform="matrix(1.00, 0.00, -0.00, -1.00, 455.0, 652.1)">C</text><text xml:space="preserve" font-family="Helvetica-Light,Helvetica" font-size="36.0" fill="#000000" transform="matrix(1.00, 0.00, -0.00, -1.00, 481.0, 652.1)">l</text><text xml:space="preserve" font-family="Helvetica-Light,Helvetica" font-size="36.0" fill="#000000" transform="matrix(1.00, 0.00, -0.00, -1.00, 489.0, 652.1)">o</text><text xml:space="preserve" font-family="Helvetica-Light,Helvetica" font-size="36.0" fill="#000000" transform="matrix(1.00, 0.00, -0.00, -1.00, 509.0, 652.1)">u</text><text xml:space="preserve" font-family="Helvetica-Light,Helvetica" font-size="36.0" fill="#000000" transform="matrix(1.00, 0.00, -0.00, -1.00, 529.0, 652.1)">d</text><text xml:space="preserve" font-family="Helvetica-Light,Helvetica" font-size="36.0" fill="#000000" transform="matrix(1.00, 0.00, -0.00, -1.00, 551.0, 652.1)"> </text><text xml:space="preserve" font-family="Helvetica-Light,Helvetica" font-size="36.0" fill="#000000" transform="matrix(1.00, 0.00, -0.00, -1.00, 561.0, 652.1)">C</text><text xml:space="preserve" font-family="Helvetica-Light,Helvetica" font-size="36.0" fill="#000000" transform="matrix(1.00, 0.00, -0.00, -1.00, 587.0, 652.1)">o</text><text xml:space="preserve" font-family="Helvetica-Light,Helvetica" font-size="36.0" fill="#000000" transform="matrix(1.00, 0.00, -0.00, -1.00, 607.0, 652.1)">m</text><text xml:space="preserve" font-family="Helvetica-Light,Helvetica" font-size="36.0" fill="#000000" transform="matrix(1.00, 0.00, -0.00, -1.00, 637.0, 652.1)">p</text><text xml:space="preserve" font-family="Helvetica-Light,Helvetica" font-size="36.0" fill="#000000" transform="matrix(1.00, 0.00, -0.00, -1.00, 659.0, 652.1)">u</text><text xml:space="preserve" font-family="Helvetica-Light,Helvetica" font-size="36.0" fill="#000000" transform="matrix(1.00, 0.00, -0.00, -1.00, 679.0, 652.1)">t</text><text xml:space="preserve" font-family="Helvetica-Light,Helvetica" font-size="36.0" fill="#000000" transform="matrix(1.00, 0.00, -0.00, -1.00, 689.0, 652.1)">i</text><text xml:space="preserve" font-family="Helvetica-Light,Helvetica" font-size="36.0" fill="#000000" transform="matrix(1.00, 0.00, -0.00, -1.00, 697.0, 652.1)">n</text><text xml:space="preserve" font-family="Helvetica-Light,Helvetica" font-size="36.0" fill="#000000" transform="matrix(1.00, 0.00, -0.00, -1.00, 717.1, 652.1)">g</text><image xlink:href="../../75BCFB93-84B5-41D2-B2B3-3F85F3E36ABD/assets/617447BA4B400780381EAAB62153C046.png" width="283.00" height="42.00" transform="matrix(1.00, 0.00, -0.00, -0.99, 583.0, 595.0)" opacity="0.50"></image><path d="M 586.0 594.0 L 863.0 594.0 L 863.0 558.0 L 586.0 558.0 Z M 586.0 594.0 " fill="#C82505"></path><g><clipPath id="clip0x7f80db4db6f0"><path d="M 582.5 562.0 L 866.6 562.0 L 866.6 590.0 L 582.5 590.0 Z M 582.5 562.0 "></path></clipPath><g clip-path="url(#clip0x7f80db4db6f0)"><text xml:space="preserve" font-family="Oswald-Medium,Oswald" font-size="22.0" fill="#FEFFFE" transform="matrix(1.00, 0.00, -0.00, -1.00, 645.4, 565.9)">A</text><text xml:space="preserve" font-family="Oswald-Medium,Oswald" font-size="22.0" fill="#FEFFFE" transform="matrix(1.00, 0.00, -0.00, -1.00, 656.9, 565.9)">N</text><text xml:space="preserve" font-family="Oswald-Medium,Oswald" font-size="22.0" fill="#FEFFFE" transform="matrix(1.00, 0.00, -0.00, -1.00, 668.8, 565.9)">A</text><text xml:space="preserve" font-family="Oswald-Medium,Oswald" font-size="22.0" fill="#FEFFFE" transform="matrix(1.00, 0.00, -0.00, -1.00, 680.2, 565.9)">L</text><text xml:space="preserve" font-family="Oswald-Medium,Oswald" font-size="22.0" fill="#FEFFFE" transform="matrix(1.00, 0.00, -0.00, -1.00, 689.5, 565.9)">I</text><text xml:space="preserve" font-family="Oswald-Medium,Oswald" font-size="22.0" fill="#FEFFFE" transform="matrix(1.00, 0.00, -0.00, -1.00, 695.5, 565.9)">T</text><text xml:space="preserve" font-family="Oswald-Medium,Oswald" font-size="22.0" fill="#FEFFFE" transform="matrix(1.00, 0.00, -0.00, -1.00, 704.8, 565.9)">Y</text><text xml:space="preserve" font-family="Oswald-Medium,Oswald" font-size="22.0" fill="#FEFFFE" transform="matrix(1.00, 0.00, -0.00, -1.00, 715.6, 565.9)">C</text><text xml:space="preserve" font-family="Oswald-Medium,Oswald" font-size="22.0" fill="#FEFFFE" transform="matrix(1.00, 0.00, -0.00, -1.00, 727.4, 565.9)">S</text><text xml:space="preserve" font-family="Oswald-Medium,Oswald" font-size="22.0" fill="#FEFFFE" transform="matrix(1.00, 0.00, -0.00, -1.00, 738.3, 565.9)"> </text><text xml:space="preserve" font-family="Oswald-Medium,Oswald" font-size="22.0" fill="#FEFFFE" transform="matrix(1.00, 0.00, -0.00, -1.00, 743.6, 565.9)">A</text><text xml:space="preserve" font-family="Oswald-Medium,Oswald" font-size="22.0" fill="#FEFFFE" transform="matrix(1.00, 0.00, -0.00, -1.00, 755.1, 565.9)">S</text><text xml:space="preserve" font-family="Oswald-Medium,Oswald" font-size="22.0" fill="#FEFFFE" transform="matrix(1.00, 0.00, -0.00, -1.00, 765.9, 565.9)"> </text><text xml:space="preserve" font-family="Oswald-Medium,Oswald" font-size="22.0" fill="#FEFFFE" transform="matrix(1.00, 0.00, -0.00, -1.00, 771.3, 565.9)">A</text><text xml:space="preserve" font-family="Oswald-Medium,Oswald" font-size="22.0" fill="#FEFFFE" transform="matrix(1.00, 0.00, -0.00, -1.00, 782.7, 565.9)"> </text><text xml:space="preserve" font-family="Oswald-Medium,Oswald" font-size="22.0" fill="#FEFFFE" transform="matrix(1.00, 0.00, -0.00, -1.00, 788.1, 565.9)">S</text><text xml:space="preserve" font-family="Oswald-Medium,Oswald" font-size="22.0" fill="#FEFFFE" transform="matrix(1.00, 0.00, -0.00, -1.00, 799.0, 565.9)">E</text><text xml:space="preserve" font-family="Oswald-Medium,Oswald" font-size="22.0" fill="#FEFFFE" transform="matrix(1.00, 0.00, -0.00, -1.00, 808.4, 565.9)">R</text><text xml:space="preserve" font-family="Oswald-Medium,Oswald" font-size="22.0" fill="#FEFFFE" transform="matrix(1.00, 0.00, -0.00, -1.00, 820.5, 565.9)">V</text><text xml:space="preserve" font-family="Oswald-Medium,Oswald" font-size="22.0" fill="#FEFFFE" transform="matrix(1.00, 0.00, -0.00, -1.00, 831.9, 565.9)">I</text><text xml:space="preserve" font-family="Oswald-Medium,Oswald" font-size="22.0" fill="#FEFFFE" transform="matrix(1.00, 0.00, -0.00, -1.00, 837.9, 565.9)">C</text><text xml:space="preserve" font-family="Oswald-Medium,Oswald" font-size="22.0" fill="#FEFFFE" transform="matrix(1.00, 0.00, -0.00, -1.00, 849.8, 565.9)">E</text><text xml:space="preserve" font-family="Oswald-Medium,Oswald" font-size="22.0" fill="#FEFFFE" transform="matrix(1.00, 0.00, -0.00, -1.00, 859.2, 565.9)"> </text><text xml:space="preserve" font-family="Oswald-Medium,Oswald" font-size="22.0" fill="#FEFFFE" transform="matrix(1.00, 0.00, -0.00, -1.00, 864.5, 565.9)"> </text><text xml:space="preserve" font-family="Oswald-Medium,Oswald" font-size="22.0" fill="#FEFFFE" transform="matrix(1.00, 0.00, -0.00, -1.00, 869.9, 565.9)"> </text><text xml:space="preserve" font-family="Oswald-Medium,Oswald" font-size="22.0" fill="#FEFFFE" transform="matrix(1.00, 0.00, -0.00, -1.00, 875.3, 565.9)"> </text><text xml:space="preserve" font-family="Oswald-Medium,Oswald" font-size="22.0" fill="#FEFFFE" transform="matrix(1.00, 0.00, -0.00, -1.00, 880.6, 565.9)"> </text></g></g><image xlink:href="../../75BCFB93-84B5-41D2-B2B3-3F85F3E36ABD/assets/03736D038E4C0DE8EBB2306BFCF400DD.png" width="283.00" height="42.00" transform="matrix(1.00, 0.00, -0.00, -0.99, 583.0, 635.7)" opacity="0.50"></image><path d="M 586.0 635.0 L 863.0 635.0 L 863.0 599.0 L 586.0 599.0 Z M 586.0 634.7 " fill="#C82505"></path><g><clipPath id="clip0x7f80db4e9300"><path d="M 582.5 602.7 L 866.6 602.7 L 866.6 630.7 L 582.5 630.7 Z M 582.5 602.7 "></path></clipPath><g clip-path="url(#clip0x7f80db4e9300)"><text xml:space="preserve" font-family="Oswald-Medium,Oswald" font-size="22.0" fill="#FEFFFE" transform="matrix(1.00, 0.00, -0.00, -1.00, 667.4, 606.6)">B</text><text xml:space="preserve" font-family="Oswald-Medium,Oswald" font-size="22.0" fill="#FEFFFE" transform="matrix(1.00, 0.00, -0.00, -1.00, 679.6, 606.6)">A</text><text xml:space="preserve" font-family="Oswald-Medium,Oswald" font-size="22.0" fill="#FEFFFE" transform="matrix(1.00, 0.00, -0.00, -1.00, 691.0, 606.6)">C</text><text xml:space="preserve" font-family="Oswald-Medium,Oswald" font-size="22.0" fill="#FEFFFE" transform="matrix(1.00, 0.00, -0.00, -1.00, 702.9, 606.6)">K</text><text xml:space="preserve" font-family="Oswald-Medium,Oswald" font-size="22.0" fill="#FEFFFE" transform="matrix(1.00, 0.00, -0.00, -1.00, 714.4, 606.6)">U</text><text xml:space="preserve" font-family="Oswald-Medium,Oswald" font-size="22.0" fill="#FEFFFE" transform="matrix(1.00, 0.00, -0.00, -1.00, 726.8, 606.6)">P</text><text xml:space="preserve" font-family="Oswald-Medium,Oswald" font-size="22.0" fill="#FEFFFE" transform="matrix(1.00, 0.00, -0.00, -1.00, 738.2, 606.6)"> </text><text xml:space="preserve" font-family="Oswald-Medium,Oswald" font-size="22.0" fill="#FEFFFE" transform="matrix(1.00, 0.00, -0.00, -1.00, 743.6, 606.6)">A</text><text xml:space="preserve" font-family="Oswald-Medium,Oswald" font-size="22.0" fill="#FEFFFE" transform="matrix(1.00, 0.00, -0.00, -1.00, 755.1, 606.6)">S</text><text xml:space="preserve" font-family="Oswald-Medium,Oswald" font-size="22.0" fill="#FEFFFE" transform="matrix(1.00, 0.00, -0.00, -1.00, 765.9, 606.6)"> </text><text xml:space="preserve" font-family="Oswald-Medium,Oswald" font-size="22.0" fill="#FEFFFE" transform="matrix(1.00, 0.00, -0.00, -1.00, 771.3, 606.6)">A</text><text xml:space="preserve" font-family="Oswald-Medium,Oswald" font-size="22.0" fill="#FEFFFE" transform="matrix(1.00, 0.00, -0.00, -1.00, 782.7, 606.6)"> </text><text xml:space="preserve" font-family="Oswald-Medium,Oswald" font-size="22.0" fill="#FEFFFE" transform="matrix(1.00, 0.00, -0.00, -1.00, 788.1, 606.6)">S</text><text xml:space="preserve" font-family="Oswald-Medium,Oswald" font-size="22.0" fill="#FEFFFE" transform="matrix(1.00, 0.00, -0.00, -1.00, 798.9, 606.6)">E</text><text xml:space="preserve" font-family="Oswald-Medium,Oswald" font-size="22.0" fill="#FEFFFE" transform="matrix(1.00, 0.00, -0.00, -1.00, 808.3, 606.6)">R</text><text xml:space="preserve" font-family="Oswald-Medium,Oswald" font-size="22.0" fill="#FEFFFE" transform="matrix(1.00, 0.00, -0.00, -1.00, 820.5, 606.6)">V</text><text xml:space="preserve" font-family="Oswald-Medium,Oswald" font-size="22.0" fill="#FEFFFE" transform="matrix(1.00, 0.00, -0.00, -1.00, 831.9, 606.6)">I</text><text xml:space="preserve" font-family="Oswald-Medium,Oswald" font-size="22.0" fill="#FEFFFE" transform="matrix(1.00, 0.00, -0.00, -1.00, 837.9, 606.6)">C</text><text xml:space="preserve" font-family="Oswald-Medium,Oswald" font-size="22.0" fill="#FEFFFE" transform="matrix(1.00, 0.00, -0.00, -1.00, 849.7, 606.6)">E</text><text xml:space="preserve" font-family="Oswald-Medium,Oswald" font-size="22.0" fill="#FEFFFE" transform="matrix(1.00, 0.00, -0.00, -1.00, 859.1, 606.6)"> </text><text xml:space="preserve" font-family="Oswald-Medium,Oswald" font-size="22.0" fill="#FEFFFE" transform="matrix(1.00, 0.00, -0.00, -1.00, 864.5, 606.6)"> </text><text xml:space="preserve" font-family="Oswald-Medium,Oswald" font-size="22.0" fill="#FEFFFE" transform="matrix(1.00, 0.00, -0.00, -1.00, 869.9, 606.6)"> </text><text xml:space="preserve" font-family="Oswald-Medium,Oswald" font-size="22.0" fill="#FEFFFE" transform="matrix(1.00, 0.00, -0.00, -1.00, 875.3, 606.6)"> </text><text xml:space="preserve" font-family="Oswald-Medium,Oswald" font-size="22.0" fill="#FEFFFE" transform="matrix(1.00, 0.00, -0.00, -1.00, 880.6, 606.6)"> </text></g></g><image xlink:href="../../75BCFB93-84B5-41D2-B2B3-3F85F3E36ABD/assets/3ACBAE35472351F86CEF2C660165D755.png" width="283.00" height="42.00" transform="matrix(1.00, 0.00, -0.00, -0.99, 583.0, 554.4)" opacity="0.50"></image><path d="M 586.0 553.0 L 863.0 553.0 L 863.0 518.0 L 586.0 518.0 Z M 586.0 553.4 " fill="#C82505"></path><g><clipPath id="clip0x7f80db24e570"><path d="M 582.5 521.4 L 866.6 521.4 L 866.6 549.4 L 582.5 549.4 Z M 582.5 521.4 "></path></clipPath><g clip-path="url(#clip0x7f80db24e570)"><text xml:space="preserve" font-family="Oswald-Medium,Oswald" font-size="22.0" fill="#FEFFFE" transform="matrix(1.00, 0.00, -0.00, -1.00, 661.1, 525.3)">D</text><text xml:space="preserve" font-family="Oswald-Medium,Oswald" font-size="22.0" fill="#FEFFFE" transform="matrix(1.00, 0.00, -0.00, -1.00, 673.3, 525.3)">E</text><text xml:space="preserve" font-family="Oswald-Medium,Oswald" font-size="22.0" fill="#FEFFFE" transform="matrix(1.00, 0.00, -0.00, -1.00, 682.7, 525.3)">S</text><text xml:space="preserve" font-family="Oswald-Medium,Oswald" font-size="22.0" fill="#FEFFFE" transform="matrix(1.00, 0.00, -0.00, -1.00, 693.5, 525.3)">K</text><text xml:space="preserve" font-family="Oswald-Medium,Oswald" font-size="22.0" fill="#FEFFFE" transform="matrix(1.00, 0.00, -0.00, -1.00, 705.2, 525.3)">T</text><text xml:space="preserve" font-family="Oswald-Medium,Oswald" font-size="22.0" fill="#FEFFFE" transform="matrix(1.00, 0.00, -0.00, -1.00, 714.5, 525.3)">O</text><text xml:space="preserve" font-family="Oswald-Medium,Oswald" font-size="22.0" fill="#FEFFFE" transform="matrix(1.00, 0.00, -0.00, -1.00, 726.8, 525.3)">P</text><text xml:space="preserve" font-family="Oswald-Medium,Oswald" font-size="22.0" fill="#FEFFFE" transform="matrix(1.00, 0.00, -0.00, -1.00, 738.2, 525.3)"> </text><text xml:space="preserve" font-family="Oswald-Medium,Oswald" font-size="22.0" fill="#FEFFFE" transform="matrix(1.00, 0.00, -0.00, -1.00, 743.6, 525.3)">A</text><text xml:space="preserve" font-family="Oswald-Medium,Oswald" font-size="22.0" fill="#FEFFFE" transform="matrix(1.00, 0.00, -0.00, -1.00, 755.0, 525.3)">S</text><text xml:space="preserve" font-family="Oswald-Medium,Oswald" font-size="22.0" fill="#FEFFFE" transform="matrix(1.00, 0.00, -0.00, -1.00, 765.9, 525.3)"> </text><text xml:space="preserve" font-family="Oswald-Medium,Oswald" font-size="22.0" fill="#FEFFFE" transform="matrix(1.00, 0.00, -0.00, -1.00, 771.3, 525.3)">A</text><text xml:space="preserve" font-family="Oswald-Medium,Oswald" font-size="22.0" fill="#FEFFFE" transform="matrix(1.00, 0.00, -0.00, -1.00, 782.7, 525.3)"> </text><text xml:space="preserve" font-family="Oswald-Medium,Oswald" font-size="22.0" fill="#FEFFFE" transform="matrix(1.00, 0.00, -0.00, -1.00, 788.1, 525.3)">S</text><text xml:space="preserve" font-family="Oswald-Medium,Oswald" font-size="22.0" fill="#FEFFFE" transform="matrix(1.00, 0.00, -0.00, -1.00, 798.9, 525.3)">E</text><text xml:space="preserve" font-family="Oswald-Medium,Oswald" font-size="22.0" fill="#FEFFFE" transform="matrix(1.00, 0.00, -0.00, -1.00, 808.3, 525.3)">R</text><text xml:space="preserve" font-family="Oswald-Medium,Oswald" font-size="22.0" fill="#FEFFFE" transform="matrix(1.00, 0.00, -0.00, -1.00, 820.5, 525.3)">V</text><text xml:space="preserve" font-family="Oswald-Medium,Oswald" font-size="22.0" fill="#FEFFFE" transform="matrix(1.00, 0.00, -0.00, -1.00, 831.9, 525.3)">I</text><text xml:space="preserve" font-family="Oswald-Medium,Oswald" font-size="22.0" fill="#FEFFFE" transform="matrix(1.00, 0.00, -0.00, -1.00, 837.9, 525.3)">C</text><text xml:space="preserve" font-family="Oswald-Medium,Oswald" font-size="22.0" fill="#FEFFFE" transform="matrix(1.00, 0.00, -0.00, -1.00, 849.7, 525.3)">E</text><text xml:space="preserve" font-family="Oswald-Medium,Oswald" font-size="22.0" fill="#FEFFFE" transform="matrix(1.00, 0.00, -0.00, -1.00, 859.1, 525.3)"> </text><text xml:space="preserve" font-family="Oswald-Medium,Oswald" font-size="22.0" fill="#FEFFFE" transform="matrix(1.00, 0.00, -0.00, -1.00, 864.5, 525.3)"> </text><text xml:space="preserve" font-family="Oswald-Medium,Oswald" font-size="22.0" fill="#FEFFFE" transform="matrix(1.00, 0.00, -0.00, -1.00, 869.9, 525.3)"> </text><text xml:space="preserve" font-family="Oswald-Medium,Oswald" font-size="22.0" fill="#FEFFFE" transform="matrix(1.00, 0.00, -0.00, -1.00, 875.2, 525.3)"> </text><text xml:space="preserve" font-family="Oswald-Medium,Oswald" font-size="22.0" fill="#FEFFFE" transform="matrix(1.00, 0.00, -0.00, -1.00, 880.6, 525.3)"> </text></g></g><image xlink:href="../../75BCFB93-84B5-41D2-B2B3-3F85F3E36ABD/assets/BE0B4B232D782325A1CD655827B5E340.png" width="458.00" height="275.00" transform="matrix(1.42, 0.00, -0.00, -1.42, 265.3, 512.7)"></image><image xlink:href="../../0099E750-43F4-4A1E-80C1-2076B752852F/assets/ECA48F0F87CD79067F902164A110ABCE.png" width="2000.00" height="676.00" transform="matrix(0.08, 0.00, -0.00, -0.08, 836.9, 166.8)"></image><text xml:space="preserve" font-family="HelveticaNeue-Light,Helvetica Neue" font-size="28.0" fill="#FEFFFE" transform="matrix(1.00, 0.00, -0.00, -1.00, 848.3, 4.9)">#</text><text xml:space="preserve" font-family="HelveticaNeue-Light,Helvetica Neue" font-size="28.0" fill="#FEFFFE" transform="matrix(1.00, 0.00, -0.00, -1.00, 863.9, 4.9)">D</text><text xml:space="preserve" font-family="HelveticaNeue-Light,Helvetica Neue" font-size="28.0" fill="#FEFFFE" transform="matrix(1.00, 0.00, -0.00, -1.00, 883.1, 4.9)">e</text><text xml:space="preserve" font-family="HelveticaNeue-Light,Helvetica Neue" font-size="28.0" fill="#FEFFFE" transform="matrix(1.00, 0.00, -0.00, -1.00, 897.6, 4.9)">v</text><text xml:space="preserve" font-family="HelveticaNeue-Light,Helvetica Neue" font-size="28.0" fill="#FEFFFE" transform="matrix(1.00, 0.00, -0.00, -1.00, 910.6, 4.9)">F</text><text xml:space="preserve" font-family="HelveticaNeue-Light,Helvetica Neue" font-size="28.0" fill="#FEFFFE" transform="matrix(1.00, 0.00, -0.00, -1.00, 925.6, 4.9)">e</text><text xml:space="preserve" font-family="HelveticaNeue-Light,Helvetica Neue" font-size="28.0" fill="#FEFFFE" transform="matrix(1.00, 0.00, -0.00, -1.00, 940.1, 4.9)">s</text><text xml:space="preserve" font-family="HelveticaNeue-Light,Helvetica Neue" font-size="28.0" fill="#FEFFFE" transform="matrix(1.00, 0.00, -0.00, -1.00, 953.6, 4.9)">t</text><text xml:space="preserve" font-family="HelveticaNeue-Light,Helvetica Neue" font-size="28.0" fill="#FEFFFE" transform="matrix(1.00, 0.00, -0.00, -1.00, 961.9, 4.9)">G</text><text xml:space="preserve" font-family="HelveticaNeue-Light,Helvetica Neue" font-size="28.0" fill="#FEFFFE" transform="matrix(1.00, 0.00, -0.00, -1.00, 982.6, 4.9)">R</text><text xml:space="preserve" font-family="HelveticaNeue-Light,Helvetica Neue" font-size="28.0" fill="#FEFFFE" transform="matrix(1.00, 0.00, -0.00, -1.00, 1001.3, 4.9)">X</text></g></svg>