<?xml version="1.0" encoding="UTF-8" standalone="no"?><svg xmlns="http://www.w3.org/2000/svg" xmlns:xlink="http://www.w3.org/1999/xlink" clip-rule="evenodd" stroke-miterlimit="10" viewBox="0 0 1024 768"><desc>SVG generated by Keynote</desc><defs></defs><g transform="matrix(1.00, 0.00, -0.00, -1.00, 0.0, 768.0)"><path d="M 0.0 768.0 L 1024.0 768.0 L 1024.0 0.0 L 0.0 0.0 Z M 0.0 768.0 " fill="#FEFFFF"></path><text xml:space="preserve" font-family="Helvetica-Light,Helvetica" font-size="70.3" fill="#000000" transform="matrix(1.00, 0.00, -0.00, -1.00, 153.1, 567.2)">C</text><text xml:space="preserve" font-family="Helvetica-Light,Helvetica" font-size="70.3" fill="#000000" transform="matrix(1.00, 0.00, -0.00, -1.00, 203.9, 567.2)">ó</text><text xml:space="preserve" font-family="Helvetica-Light,Helvetica" font-size="70.3" fill="#000000" transform="matrix(1.00, 0.00, -0.00, -1.00, 243.0, 567.2)">m</text><text xml:space="preserve" font-family="Helvetica-Light,Helvetica" font-size="70.3" fill="#000000" transform="matrix(1.00, 0.00, -0.00, -1.00, 301.6, 567.2)">o</text><text xml:space="preserve" font-family="Helvetica-Light,Helvetica" font-size="70.3" fill="#000000" transform="matrix(1.00, 0.00, -0.00, -1.00, 340.7, 567.2)"> </text><text xml:space="preserve" font-family="Helvetica-Light,Helvetica" font-size="70.3" fill="#000000" transform="matrix(1.00, 0.00, -0.00, -1.00, 360.2, 567.2)">c</text><text xml:space="preserve" font-family="Helvetica-Light,Helvetica" font-size="70.3" fill="#000000" transform="matrix(1.00, 0.00, -0.00, -1.00, 399.3, 567.2)">r</text><text xml:space="preserve" font-family="Helvetica-Light,Helvetica" font-size="70.3" fill="#000000" transform="matrix(1.00, 0.00, -0.00, -1.00, 421.4, 567.2)">e</text><text xml:space="preserve" font-family="Helvetica-Light,Helvetica" font-size="70.3" fill="#000000" transform="matrix(1.00, 0.00, -0.00, -1.00, 460.5, 567.2)">a</text><text xml:space="preserve" font-family="Helvetica-Light,Helvetica" font-size="70.3" fill="#000000" transform="matrix(1.00, 0.00, -0.00, -1.00, 499.6, 567.2)">r</text><text xml:space="preserve" font-family="Helvetica-Light,Helvetica" font-size="70.3" fill="#000000" transform="matrix(1.00, 0.00, -0.00, -1.00, 523.0, 567.2)"> </text><text xml:space="preserve" font-family="Helvetica-Light,Helvetica" font-size="70.3" fill="#000000" transform="matrix(1.00, 0.00, -0.00, -1.00, 542.6, 567.2)">t</text><text xml:space="preserve" font-family="Helvetica-Light,Helvetica" font-size="70.3" fill="#000000" transform="matrix(1.00, 0.00, -0.00, -1.00, 562.1, 567.2)">e</text><text xml:space="preserve" font-family="Helvetica-Light,Helvetica" font-size="70.3" fill="#000000" transform="matrix(1.00, 0.00, -0.00, -1.00, 601.2, 567.2)">c</text><text xml:space="preserve" font-family="Helvetica-Light,Helvetica" font-size="70.3" fill="#000000" transform="matrix(1.00, 0.00, -0.00, -1.00, 640.3, 567.2)">n</text><text xml:space="preserve" font-family="Helvetica-Light,Helvetica" font-size="70.3" fill="#000000" transform="matrix(1.00, 0.00, -0.00, -1.00, 679.4, 567.2)">o</text><text xml:space="preserve" font-family="Helvetica-Light,Helvetica" font-size="70.3" fill="#000000" transform="matrix(1.00, 0.00, -0.00, -1.00, 718.5, 567.2)">l</text><text xml:space="preserve" font-family="Helvetica-Light,Helvetica" font-size="70.3" fill="#000000" transform="matrix(1.00, 0.00, -0.00, -1.00, 734.1, 567.2)">o</text><text xml:space="preserve" font-family="Helvetica-Light,Helvetica" font-size="70.3" fill="#000000" transform="matrix(1.00, 0.00, -0.00, -1.00, 773.2, 567.2)">g</text><text xml:space="preserve" font-family="Helvetica-Light,Helvetica" font-size="70.3" fill="#000000" transform="matrix(1.00, 0.00, -0.00, -1.00, 816.2, 567.2)">í</text><text xml:space="preserve" font-family="Helvetica-Light,Helvetica" font-size="70.3" fill="#000000" transform="matrix(1.00, 0.00, -0.00, -1.00, 831.8, 567.2)">a</text><text xml:space="preserve" font-family="Helvetica-Light,Helvetica" font-size="70.3" fill="#000000" transform="matrix(1.00, 0.00, -0.00, -1.00, 870.9, 567.2)"> </text><text xml:space="preserve" font-family="Helvetica-Light,Helvetica" font-size="70.3" fill="#000000" transform="matrix(1.00, 0.00, -0.00, -1.00, 177.9, 483.2)">c</text><text xml:space="preserve" font-family="Helvetica-Light,Helvetica" font-size="70.3" fill="#000000" transform="matrix(1.00, 0.00, -0.00, -1.00, 217.0, 483.2)">l</text><text xml:space="preserve" font-family="Helvetica-Light,Helvetica" font-size="70.3" fill="#000000" transform="matrix(1.00, 0.00, -0.00, -1.00, 232.6, 483.2)">o</text><text xml:space="preserve" font-family="Helvetica-Light,Helvetica" font-size="70.3" fill="#000000" transform="matrix(1.00, 0.00, -0.00, -1.00, 271.7, 483.2)">u</text><text xml:space="preserve" font-family="Helvetica-Light,Helvetica" font-size="70.3" fill="#000000" transform="matrix(1.00, 0.00, -0.00, -1.00, 310.8, 483.2)">d</text><text xml:space="preserve" font-family="Helvetica-Light,Helvetica" font-size="70.3" fill="#000000" transform="matrix(1.00, 0.00, -0.00, -1.00, 353.7, 483.2)"> </text><text xml:space="preserve" font-family="Helvetica-Light,Helvetica" font-size="70.3" fill="#000000" transform="matrix(1.00, 0.00, -0.00, -1.00, 373.3, 483.2)">c</text><text xml:space="preserve" font-family="Helvetica-Light,Helvetica" font-size="70.3" fill="#000000" transform="matrix(1.00, 0.00, -0.00, -1.00, 412.4, 483.2)">o</text><text xml:space="preserve" font-family="Helvetica-Light,Helvetica" font-size="70.3" fill="#000000" transform="matrix(1.00, 0.00, -0.00, -1.00, 451.5, 483.2)">m</text><text xml:space="preserve" font-family="Helvetica-Light,Helvetica" font-size="70.3" fill="#000000" transform="matrix(1.00, 0.00, -0.00, -1.00, 510.0, 483.2)">p</text><text xml:space="preserve" font-family="Helvetica-Light,Helvetica" font-size="70.3" fill="#000000" transform="matrix(1.00, 0.00, -0.00, -1.00, 553.0, 483.2)">u</text><text xml:space="preserve" font-family="Helvetica-Light,Helvetica" font-size="70.3" fill="#000000" transform="matrix(1.00, 0.00, -0.00, -1.00, 592.1, 483.2)">t</text><text xml:space="preserve" font-family="Helvetica-Light,Helvetica" font-size="70.3" fill="#000000" transform="matrix(1.00, 0.00, -0.00, -1.00, 611.6, 483.2)">i</text><text xml:space="preserve" font-family="Helvetica-Light,Helvetica" font-size="70.3" fill="#000000" transform="matrix(1.00, 0.00, -0.00, -1.00, 627.2, 483.2)">n</text><text xml:space="preserve" font-family="Helvetica-Light,Helvetica" font-size="70.3" fill="#000000" transform="matrix(1.00, 0.00, -0.00, -1.00, 666.3, 483.2)">g</text><text xml:space="preserve" font-family="Helvetica-Light,Helvetica" font-size="70.3" fill="#000000" transform="matrix(1.00, 0.00, -0.00, -1.00, 709.3, 483.2)"> </text><text xml:space="preserve" font-family="Helvetica-Light,Helvetica" font-size="70.3" fill="#000000" transform="matrix(1.00, 0.00, -0.00, -1.00, 728.8, 483.2)">c</text><text xml:space="preserve" font-family="Helvetica-Light,Helvetica" font-size="70.3" fill="#000000" transform="matrix(1.00, 0.00, -0.00, -1.00, 767.9, 483.2)">o</text><text xml:space="preserve" font-family="Helvetica-Light,Helvetica" font-size="70.3" fill="#000000" transform="matrix(1.00, 0.00, -0.00, -1.00, 807.0, 483.2)">n</text><text xml:space="preserve" font-family="Helvetica-Light,Helvetica" font-size="70.3" fill="#000000" transform="matrix(1.00, 0.00, -0.00, -1.00, 846.1, 483.2)"> </text><text xml:space="preserve" font-family="Helvetica-Light,Helvetica" font-size="70.3" fill="#000000" transform="matrix(1.00, 0.00, -0.00, -1.00, 97.8, 399.2)">O</text><text xml:space="preserve" font-family="Helvetica-Light,Helvetica" font-size="70.3" fill="#000000" transform="matrix(1.00, 0.00, -0.00, -1.00, 152.5, 399.2)">p</text><text xml:space="preserve" font-family="Helvetica-Light,Helvetica" font-size="70.3" fill="#000000" transform="matrix(1.00, 0.00, -0.00, -1.00, 195.5, 399.2)">e</text><text xml:space="preserve" font-family="Helvetica-Light,Helvetica" font-size="70.3" fill="#000000" transform="matrix(1.00, 0.00, -0.00, -1.00, 234.6, 399.2)">n</text><text xml:space="preserve" font-family="Helvetica-Light,Helvetica" font-size="70.3" fill="#000000" transform="matrix(1.00, 0.00, -0.00, -1.00, 273.6, 399.2)">N</text><text xml:space="preserve" font-family="Helvetica-Light,Helvetica" font-size="70.3" fill="#000000" transform="matrix(1.00, 0.00, -0.00, -1.00, 324.4, 399.2)">e</text><text xml:space="preserve" font-family="Helvetica-Light,Helvetica" font-size="70.3" fill="#000000" transform="matrix(1.00, 0.00, -0.00, -1.00, 363.5, 399.2)">b</text><text xml:space="preserve" font-family="Helvetica-Light,Helvetica" font-size="70.3" fill="#000000" transform="matrix(1.00, 0.00, -0.00, -1.00, 406.5, 399.2)">u</text><text xml:space="preserve" font-family="Helvetica-Light,Helvetica" font-size="70.3" fill="#000000" transform="matrix(1.00, 0.00, -0.00, -1.00, 445.6, 399.2)">l</text><text xml:space="preserve" font-family="Helvetica-Light,Helvetica" font-size="70.3" fill="#000000" transform="matrix(1.00, 0.00, -0.00, -1.00, 461.2, 399.2)">a</text><text xml:space="preserve" font-family="Helvetica-Light,Helvetica" font-size="70.3" fill="#000000" transform="matrix(1.00, 0.00, -0.00, -1.00, 500.3, 399.2)"> </text><text xml:space="preserve" font-family="Helvetica-Light,Helvetica" font-size="70.3" fill="#000000" transform="matrix(1.00, 0.00, -0.00, -1.00, 519.8, 399.2)">y</text><text xml:space="preserve" font-family="Helvetica-Light,Helvetica" font-size="70.3" fill="#000000" transform="matrix(1.00, 0.00, -0.00, -1.00, 555.0, 399.2)"> </text><text xml:space="preserve" font-family="Helvetica-Light,Helvetica" font-size="70.3" fill="#000000" transform="matrix(1.00, 0.00, -0.00, -1.00, 574.5, 399.2)">O</text><text xml:space="preserve" font-family="Helvetica-Light,Helvetica" font-size="70.3" fill="#000000" transform="matrix(1.00, 0.00, -0.00, -1.00, 629.2, 399.2)">p</text><text xml:space="preserve" font-family="Helvetica-Light,Helvetica" font-size="70.3" fill="#000000" transform="matrix(1.00, 0.00, -0.00, -1.00, 672.2, 399.2)">e</text><text xml:space="preserve" font-family="Helvetica-Light,Helvetica" font-size="70.3" fill="#000000" transform="matrix(1.00, 0.00, -0.00, -1.00, 711.3, 399.2)">n</text><text xml:space="preserve" font-family="Helvetica-Light,Helvetica" font-size="70.3" fill="#000000" transform="matrix(1.00, 0.00, -0.00, -1.00, 750.4, 399.2)">S</text><text xml:space="preserve" font-family="Helvetica-Light,Helvetica" font-size="70.3" fill="#000000" transform="matrix(1.00, 0.00, -0.00, -1.00, 793.3, 399.2)">t</text><text xml:space="preserve" font-family="Helvetica-Light,Helvetica" font-size="70.3" fill="#000000" transform="matrix(1.00, 0.00, -0.00, -1.00, 812.9, 399.2)">a</text><text xml:space="preserve" font-family="Helvetica-Light,Helvetica" font-size="70.3" fill="#000000" transform="matrix(1.00, 0.00, -0.00, -1.00, 851.9, 399.2)">c</text><text xml:space="preserve" font-family="Helvetica-Light,Helvetica" font-size="70.3" fill="#000000" transform="matrix(1.00, 0.00, -0.00, -1.00, 891.0, 399.2)">k</text><text xml:space="preserve" font-family="Helvetica-Light,Helvetica" font-size="32.0" fill="#000000" transform="matrix(1.00, 0.00, -0.00, -1.00, 367.1, 337.4)">M</text><text xml:space="preserve" font-family="Helvetica-Light,Helvetica" font-size="32.0" fill="#000000" transform="matrix(1.00, 0.00, -0.00, -1.00, 393.7, 337.4)">a</text><text xml:space="preserve" font-family="Helvetica-Light,Helvetica" font-size="32.0" fill="#000000" transform="matrix(1.00, 0.00, -0.00, -1.00, 411.5, 337.4)">n</text><text xml:space="preserve" font-family="Helvetica-Light,Helvetica" font-size="32.0" fill="#000000" transform="matrix(1.00, 0.00, -0.00, -1.00, 429.3, 337.4)">u</text><text xml:space="preserve" font-family="Helvetica-Light,Helvetica" font-size="32.0" fill="#000000" transform="matrix(1.00, 0.00, -0.00, -1.00, 447.1, 337.4)">e</text><text xml:space="preserve" font-family="Helvetica-Light,Helvetica" font-size="32.0" fill="#000000" transform="matrix(1.00, 0.00, -0.00, -1.00, 464.9, 337.4)">l</text><text xml:space="preserve" font-family="Helvetica-Light,Helvetica" font-size="32.0" fill="#000000" transform="matrix(1.00, 0.00, -0.00, -1.00, 472.0, 337.4)"> </text><text xml:space="preserve" font-family="Helvetica-Light,Helvetica" font-size="32.0" fill="#000000" transform="matrix(1.00, 0.00, -0.00, -1.00, 480.9, 337.4)">P</text><text xml:space="preserve" font-family="Helvetica-Light,Helvetica" font-size="32.0" fill="#000000" transform="matrix(1.00, 0.00, -0.00, -1.00, 500.4, 337.4)">a</text><text xml:space="preserve" font-family="Helvetica-Light,Helvetica" font-size="32.0" fill="#000000" transform="matrix(1.00, 0.00, -0.00, -1.00, 518.2, 337.4)">r</text><text xml:space="preserve" font-family="Helvetica-Light,Helvetica" font-size="32.0" fill="#000000" transform="matrix(1.00, 0.00, -0.00, -1.00, 528.9, 337.4)">r</text><text xml:space="preserve" font-family="Helvetica-Light,Helvetica" font-size="32.0" fill="#000000" transform="matrix(1.00, 0.00, -0.00, -1.00, 539.5, 337.4)">a</text><text xml:space="preserve" font-family="Helvetica-Light,Helvetica" font-size="32.0" fill="#000000" transform="matrix(1.00, 0.00, -0.00, -1.00, 557.3, 337.4)"> </text><text xml:space="preserve" font-family="Helvetica-Light,Helvetica" font-size="32.0" fill="#000000" transform="matrix(1.00, 0.00, -0.00, -1.00, 566.2, 337.4)">R</text><text xml:space="preserve" font-family="Helvetica-Light,Helvetica" font-size="32.0" fill="#000000" transform="matrix(1.00, 0.00, -0.00, -1.00, 587.6, 337.4)">o</text><text xml:space="preserve" font-family="Helvetica-Light,Helvetica" font-size="32.0" fill="#000000" transform="matrix(1.00, 0.00, -0.00, -1.00, 605.4, 337.4)">y</text><text xml:space="preserve" font-family="Helvetica-Light,Helvetica" font-size="32.0" fill="#000000" transform="matrix(1.00, 0.00, -0.00, -1.00, 621.4, 337.4)">ó</text><text xml:space="preserve" font-family="Helvetica-Light,Helvetica" font-size="32.0" fill="#000000" transform="matrix(1.00, 0.00, -0.00, -1.00, 639.2, 337.4)">n</text><text xml:space="preserve" font-family="Helvetica-Light,Helvetica" font-size="32.0" fill="#000000" transform="matrix(1.00, 0.00, -0.00, -1.00, 656.9, 337.4)"> </text><image xlink:href="07D070F1F14A22F96AE4D30409DDE93E.png" width="1097.00" height="122.00" transform="matrix(0.93, 0.00, -0.00, -0.93, 0.0, 112.9)"></image><image xlink:href="ECA48F0F87CD79067F902164A110ABCE.png" width="2000.00" height="676.00" transform="matrix(0.08, 0.00, -0.00, -0.08, 836.9, 166.8)"></image><image xlink:href="71AF09E17046C42938E7FCF82766A0C8.png" width="900.00" height="506.00" transform="matrix(1.14, 0.00, -0.00, -1.14, -2.0, 1318.7)"></image><text xml:space="preserve" font-family="Helvetica-Light,Helvetica" font-size="26.0" fill="#28A9E0" transform="matrix(1.00, 0.00, -0.00, -1.00, 118.0, 176.6)">m</text><text xml:space="preserve" font-family="Helvetica-Light,Helvetica" font-size="26.0" fill="#28A9E0" transform="matrix(1.00, 0.00, -0.00, -1.00, 139.6, 176.6)">a</text><text xml:space="preserve" font-family="Helvetica-Light,Helvetica" font-size="26.0" fill="#28A9E0" transform="matrix(1.00, 0.00, -0.00, -1.00, 154.1, 176.6)">n</text><text xml:space="preserve" font-family="Helvetica-Light,Helvetica" font-size="26.0" fill="#28A9E0" transform="matrix(1.00, 0.00, -0.00, -1.00, 168.6, 176.6)">u</text><text xml:space="preserve" font-family="Helvetica-Light,Helvetica" font-size="26.0" fill="#28A9E0" transform="matrix(1.00, 0.00, -0.00, -1.00, 183.0, 176.6)">g</text><text xml:space="preserve" font-family="Helvetica-Light,Helvetica" font-size="26.0" fill="#28A9E0" transform="matrix(1.00, 0.00, -0.00, -1.00, 198.9, 176.6)">r</text><text xml:space="preserve" font-family="Helvetica-Light,Helvetica" font-size="26.0" fill="#28A9E0" transform="matrix(1.00, 0.00, -0.00, -1.00, 207.6, 176.6)">a</text><text xml:space="preserve" font-family="Helvetica-Light,Helvetica" font-size="26.0" fill="#28A9E0" transform="matrix(1.00, 0.00, -0.00, -1.00, 222.0, 176.6)">p</text><text xml:space="preserve" font-family="Helvetica-Light,Helvetica" font-size="26.0" fill="#28A9E0" transform="matrix(1.00, 0.00, -0.00, -1.00, 237.9, 176.6)">e</text><text xml:space="preserve" font-family="Helvetica-Light,Helvetica" font-size="26.0" fill="#28A9E0" transform="matrix(1.00, 0.00, -0.00, -1.00, 252.4, 176.6)">v</text><text xml:space="preserve" font-family="Helvetica-Light,Helvetica" font-size="26.0" fill="#28A9E0" transform="matrix(1.00, 0.00, -0.00, -1.00, 265.4, 176.6)">i</text><text xml:space="preserve" font-family="Helvetica-Light,Helvetica" font-size="26.0" fill="#28A9E0" transform="matrix(1.00, 0.00, -0.00, -1.00, 271.1, 176.6)">n</text><text xml:space="preserve" font-family="Helvetica-Light,Helvetica" font-size="26.0" fill="#28A9E0" transform="matrix(1.00, 0.00, -0.00, -1.00, 285.6, 176.6)">e</text><text xml:space="preserve" font-family="Helvetica-Light,Helvetica" font-size="26.0" fill="#28A9E0" transform="matrix(1.00, 0.00, -0.00, -1.00, 300.0, 176.6)"> </text><text xml:space="preserve" font-family="Helvetica-Light,Helvetica" font-size="26.0" fill="#28A9E0" transform="matrix(1.00, 0.00, -0.00, -1.00, 118.0, 145.6)">m</text><text xml:space="preserve" font-family="Helvetica-Light,Helvetica" font-size="26.0" fill="#28A9E0" transform="matrix(1.00, 0.00, -0.00, -1.00, 139.6, 145.6)">a</text><text xml:space="preserve" font-family="Helvetica-Light,Helvetica" font-size="26.0" fill="#28A9E0" transform="matrix(1.00, 0.00, -0.00, -1.00, 154.1, 145.6)">n</text><text xml:space="preserve" font-family="Helvetica-Light,Helvetica" font-size="26.0" fill="#28A9E0" transform="matrix(1.00, 0.00, -0.00, -1.00, 168.6, 145.6)">u</text><text xml:space="preserve" font-family="Helvetica-Light,Helvetica" font-size="26.0" fill="#28A9E0" transform="matrix(1.00, 0.00, -0.00, -1.00, 183.0, 145.6)">e</text><text xml:space="preserve" font-family="Helvetica-Light,Helvetica" font-size="26.0" fill="#28A9E0" transform="matrix(1.00, 0.00, -0.00, -1.00, 197.5, 145.6)">l</text><text xml:space="preserve" font-family="Helvetica-Light,Helvetica" font-size="26.0" fill="#28A9E0" transform="matrix(1.00, 0.00, -0.00, -1.00, 203.2, 145.6)">p</text><text xml:space="preserve" font-family="Helvetica-Light,Helvetica" font-size="26.0" fill="#28A9E0" transform="matrix(1.00, 0.00, -0.00, -1.00, 219.1, 145.6)">a</text><text xml:space="preserve" font-family="Helvetica-Light,Helvetica" font-size="26.0" fill="#28A9E0" transform="matrix(1.00, 0.00, -0.00, -1.00, 233.6, 145.6)">r</text><text xml:space="preserve" font-family="Helvetica-Light,Helvetica" font-size="26.0" fill="#28A9E0" transform="matrix(1.00, 0.00, -0.00, -1.00, 242.2, 145.6)">r</text><text xml:space="preserve" font-family="Helvetica-Light,Helvetica" font-size="26.0" fill="#28A9E0" transform="matrix(1.00, 0.00, -0.00, -1.00, 250.9, 145.6)">a</text><text xml:space="preserve" font-family="Helvetica-Light,Helvetica" font-size="26.0" fill="#28A9E0" transform="matrix(1.00, 0.00, -0.00, -1.00, 265.4, 145.6)">@</text><text xml:space="preserve" font-family="Helvetica-Light,Helvetica" font-size="26.0" fill="#28A9E0" transform="matrix(1.00, 0.00, -0.00, -1.00, 286.2, 145.6)">d</text><text xml:space="preserve" font-family="Helvetica-Light,Helvetica" font-size="26.0" fill="#28A9E0" transform="matrix(1.00, 0.00, -0.00, -1.00, 302.0, 145.6)">e</text><text xml:space="preserve" font-family="Helvetica-Light,Helvetica" font-size="26.0" fill="#28A9E0" transform="matrix(1.00, 0.00, -0.00, -1.00, 316.5, 145.6)">c</text><text xml:space="preserve" font-family="Helvetica-Light,Helvetica" font-size="26.0" fill="#28A9E0" transform="matrix(1.00, 0.00, -0.00, -1.00, 331.0, 145.6)">s</text><text xml:space="preserve" font-family="Helvetica-Light,Helvetica" font-size="26.0" fill="#28A9E0" transform="matrix(1.00, 0.00, -0.00, -1.00, 344.0, 145.6)">a</text><text xml:space="preserve" font-family="Helvetica-Light,Helvetica" font-size="26.0" fill="#28A9E0" transform="matrix(1.00, 0.00, -0.00, -1.00, 358.4, 145.6)">i</text><text xml:space="preserve" font-family="Helvetica-Light,Helvetica" font-size="26.0" fill="#28A9E0" transform="matrix(1.00, 0.00, -0.00, -1.00, 364.2, 145.6)">.</text><text xml:space="preserve" font-family="Helvetica-Light,Helvetica" font-size="26.0" fill="#28A9E0" transform="matrix(1.00, 0.00, -0.00, -1.00, 371.4, 145.6)">u</text><text xml:space="preserve" font-family="Helvetica-Light,Helvetica" font-size="26.0" fill="#28A9E0" transform="matrix(1.00, 0.00, -0.00, -1.00, 385.9, 145.6)">g</text><text xml:space="preserve" font-family="Helvetica-Light,Helvetica" font-size="26.0" fill="#28A9E0" transform="matrix(1.00, 0.00, -0.00, -1.00, 401.8, 145.6)">r</text><text xml:space="preserve" font-family="Helvetica-Light,Helvetica" font-size="26.0" fill="#28A9E0" transform="matrix(1.00, 0.00, -0.00, -1.00, 408.0, 145.6)">.</text><text xml:space="preserve" font-family="Helvetica-Light,Helvetica" font-size="26.0" fill="#28A9E0" transform="matrix(1.00, 0.00, -0.00, -1.00, 415.2, 145.6)">e</text><text xml:space="preserve" font-family="Helvetica-Light,Helvetica" font-size="26.0" fill="#28A9E0" transform="matrix(1.00, 0.00, -0.00, -1.00, 429.7, 145.6)">s</text><image xlink:href="BC191BBC7679A598FF22A5B48EC8AA89.png" width="518.00" height="518.00" transform="matrix(0.08, 0.00, -0.00, -0.08, 73.3, 204.5)"></image><image xlink:href="B0921EE0AE93CDC36CF8B1A0FE1A01B5.png" width="256.00" height="256.00" transform="matrix(0.16, 0.00, -0.00, -0.16, 73.3, 171.4)"></image><text xml:space="preserve" font-family="HelveticaNeue-Light,Helvetica Neue" font-size="28.0" fill="#FEFFFE" transform="matrix(1.00, 0.00, -0.00, -1.00, 848.3, 4.9)">#</text><text xml:space="preserve" font-family="HelveticaNeue-Light,Helvetica Neue" font-size="28.0" fill="#FEFFFE" transform="matrix(1.00, 0.00, -0.00, -1.00, 863.9, 4.9)">D</text><text xml:space="preserve" font-family="HelveticaNeue-Light,Helvetica Neue" font-size="28.0" fill="#FEFFFE" transform="matrix(1.00, 0.00, -0.00, -1.00, 883.1, 4.9)">e</text><text xml:space="preserve" font-family="HelveticaNeue-Light,Helvetica Neue" font-size="28.0" fill="#FEFFFE" transform="matrix(1.00, 0.00, -0.00, -1.00, 897.6, 4.9)">v</text><text xml:space="preserve" font-family="HelveticaNeue-Light,Helvetica Neue" font-size="28.0" fill="#FEFFFE" transform="matrix(1.00, 0.00, -0.00, -1.00, 910.6, 4.9)">F</text><text xml:space="preserve" font-family="HelveticaNeue-Light,Helvetica Neue" font-size="28.0" fill="#FEFFFE" transform="matrix(1.00, 0.00, -0.00, -1.00, 925.6, 4.9)">e</text><text xml:space="preserve" font-family="HelveticaNeue-Light,Helvetica Neue" font-size="28.0" fill="#FEFFFE" transform="matrix(1.00, 0.00, -0.00, -1.00, 940.1, 4.9)">s</text><text xml:space="preserve" font-family="HelveticaNeue-Light,Helvetica Neue" font-size="28.0" fill="#FEFFFE" transform="matrix(1.00, 0.00, -0.00, -1.00, 953.6, 4.9)">t</text><text xml:space="preserve" font-family="HelveticaNeue-Light,Helvetica Neue" font-size="28.0" fill="#FEFFFE" transform="matrix(1.00, 0.00, -0.00, -1.00, 961.9, 4.9)">G</text><text xml:space="preserve" font-family="HelveticaNeue-Light,Helvetica Neue" font-size="28.0" fill="#FEFFFE" transform="matrix(1.00, 0.00, -0.00, -1.00, 982.6, 4.9)">R</text><text xml:space="preserve" font-family="HelveticaNeue-Light,Helvetica Neue" font-size="28.0" fill="#FEFFFE" transform="matrix(1.00, 0.00, -0.00, -1.00, 1001.3, 4.9)">X</text></g></svg>