<?xml version="1.0" encoding="UTF-8" standalone="no"?><svg xmlns="http://www.w3.org/2000/svg" xmlns:xlink="http://www.w3.org/1999/xlink" clip-rule="evenodd" stroke-miterlimit="10" viewBox="0 0 1024 768"><desc>SVG generated by Keynote</desc><defs></defs><g transform="matrix(1.00, 0.00, -0.00, -1.00, 0.0, 768.0)"><path d="M 0.0 768.0 L 1024.0 768.0 L 1024.0 0.0 L 0.0 0.0 Z M 0.0 768.0 " fill="#FEFFFF"></path><image xlink:href="../../0099E750-43F4-4A1E-80C1-2076B752852F/assets/07D070F1F14A22F96AE4D30409DDE93E.png" width="1097.00" height="122.00" transform="matrix(0.93, 0.00, -0.00, -0.93, 0.0, 112.9)"></image><image xlink:href="../../0099E750-43F4-4A1E-80C1-2076B752852F/assets/71AF09E17046C42938E7FCF82766A0C8.png" width="900.00" height="506.00" transform="matrix(1.14, 0.00, -0.00, -1.14, -2.0, 1318.7)"></image><text xml:space="preserve" font-family="Helvetica-Light,Helvetica" font-size="45.0" fill="#000000" transform="matrix(1.00, 0.00, -0.00, -1.00, 436.0, 394.4)">T</text><text xml:space="preserve" font-family="Helvetica-Light,Helvetica" font-size="45.0" fill="#000000" transform="matrix(1.00, 0.00, -0.00, -1.00, 456.8, 394.4)">r</text><text xml:space="preserve" font-family="Helvetica-Light,Helvetica" font-size="45.0" fill="#000000" transform="matrix(1.00, 0.00, -0.00, -1.00, 471.8, 394.4)">u</text><text xml:space="preserve" font-family="Helvetica-Light,Helvetica" font-size="45.0" fill="#000000" transform="matrix(1.00, 0.00, -0.00, -1.00, 496.8, 394.4)">m</text><text xml:space="preserve" font-family="Helvetica-Light,Helvetica" font-size="45.0" fill="#000000" transform="matrix(1.00, 0.00, -0.00, -1.00, 534.3, 394.4)">p</text><text xml:space="preserve" font-family="Helvetica-Light,Helvetica" font-size="45.0" fill="#000000" transform="matrix(1.00, 0.00, -0.00, -1.00, 561.8, 394.4)">g</text><text xml:space="preserve" font-family="Helvetica-Light,Helvetica" font-size="45.0" fill="#000000" transform="matrix(1.00, 0.00, -0.00, -1.00, 589.3, 394.4)">r</text><text xml:space="preserve" font-family="Helvetica-Light,Helvetica" font-size="45.0" fill="#000000" transform="matrix(1.00, 0.00, -0.00, -1.00, 604.3, 394.4)">a</text><text xml:space="preserve" font-family="Helvetica-Light,Helvetica" font-size="45.0" fill="#000000" transform="matrix(1.00, 0.00, -0.00, -1.00, 629.3, 394.4)">m</text><g><clipPath id="clip0x7f80de32b830"><path d="M 294.2 479.0 L 430.0 479.0 L 430.0 343.1 L 294.2 343.1 Z M 294.2 479.0 "></path></clipPath><g clip-path="url(#clip0x7f80de32b830)"><g><clipPath id="clip0x7f80de32bfb0"><path d="M 294.2 343.1 L 430.0 343.1 L 430.0 479.0 L 294.2 479.0 Z M 294.2 343.1 "></path></clipPath><g clip-path="url(#clip0x7f80de32bfb0)"><image xlink:href="../../07E4453B-C065-4E15-823A-72069609EA6B/assets/FD0E776C5EFD2DE65255306EF4FE5920.png" width="236.00" height="236.00" transform="matrix(0.58, 0.00, -0.00, -0.58, 294.0, 478.8)"></image></g></g></g></g><g><clipPath id="clip0x7f80de2f5c00"><path d="M 310.5 465.9 L 416.0 465.9 L 416.0 356.6 L 310.5 356.6 Z M 310.5 465.9 "></path></clipPath><g clip-path="url(#clip0x7f80de2f5c00)"><g><clipPath id="clip0x7f80de2f7460"><path d="M 294.2 343.1 L 430.0 343.1 L 430.0 479.0 L 294.2 479.0 Z M 294.2 343.1 "></path></clipPath><g clip-path="url(#clip0x7f80de2f7460)"><image xlink:href="../../07E4453B-C065-4E15-823A-72069609EA6B/assets/BE9393D63114D41A7DD2829B272A1E48.png" width="334.00" height="346.00" transform="matrix(0.32, 0.00, -0.00, -0.32, 310.5, 465.9)"></image></g></g></g></g><image xlink:href="../../0099E750-43F4-4A1E-80C1-2076B752852F/assets/ECA48F0F87CD79067F902164A110ABCE.png" width="2000.00" height="676.00" transform="matrix(0.08, 0.00, -0.00, -0.08, 836.9, 166.8)"></image><text xml:space="preserve" font-family="HelveticaNeue-Light,Helvetica Neue" font-size="28.0" fill="#FEFFFE" transform="matrix(1.00, 0.00, -0.00, -1.00, 848.3, 4.9)">#</text><text xml:space="preserve" font-family="HelveticaNeue-Light,Helvetica Neue" font-size="28.0" fill="#FEFFFE" transform="matrix(1.00, 0.00, -0.00, -1.00, 863.9, 4.9)">D</text><text xml:space="preserve" font-family="HelveticaNeue-Light,Helvetica Neue" font-size="28.0" fill="#FEFFFE" transform="matrix(1.00, 0.00, -0.00, -1.00, 883.1, 4.9)">e</text><text xml:space="preserve" font-family="HelveticaNeue-Light,Helvetica Neue" font-size="28.0" fill="#FEFFFE" transform="matrix(1.00, 0.00, -0.00, -1.00, 897.6, 4.9)">v</text><text xml:space="preserve" font-family="HelveticaNeue-Light,Helvetica Neue" font-size="28.0" fill="#FEFFFE" transform="matrix(1.00, 0.00, -0.00, -1.00, 910.6, 4.9)">F</text><text xml:space="preserve" font-family="HelveticaNeue-Light,Helvetica Neue" font-size="28.0" fill="#FEFFFE" transform="matrix(1.00, 0.00, -0.00, -1.00, 925.6, 4.9)">e</text><text xml:space="preserve" font-family="HelveticaNeue-Light,Helvetica Neue" font-size="28.0" fill="#FEFFFE" transform="matrix(1.00, 0.00, -0.00, -1.00, 940.1, 4.9)">s</text><text xml:space="preserve" font-family="HelveticaNeue-Light,Helvetica Neue" font-size="28.0" fill="#FEFFFE" transform="matrix(1.00, 0.00, -0.00, -1.00, 953.6, 4.9)">t</text><text xml:space="preserve" font-family="HelveticaNeue-Light,Helvetica Neue" font-size="28.0" fill="#FEFFFE" transform="matrix(1.00, 0.00, -0.00, -1.00, 961.9, 4.9)">G</text><text xml:space="preserve" font-family="HelveticaNeue-Light,Helvetica Neue" font-size="28.0" fill="#FEFFFE" transform="matrix(1.00, 0.00, -0.00, -1.00, 982.6, 4.9)">R</text><text xml:space="preserve" font-family="HelveticaNeue-Light,Helvetica Neue" font-size="28.0" fill="#FEFFFE" transform="matrix(1.00, 0.00, -0.00, -1.00, 1001.3, 4.9)">X</text></g></svg>