<?xml version="1.0" encoding="UTF-8" standalone="no"?><svg xmlns="http://www.w3.org/2000/svg" xmlns:xlink="http://www.w3.org/1999/xlink" clip-rule="evenodd" stroke-miterlimit="10" viewBox="0 0 1024 768"><desc>SVG generated by Keynote</desc><defs></defs><g transform="matrix(1.00, 0.00, -0.00, -1.00, 0.0, 768.0)"><path d="M 0.0 768.0 L 1024.0 768.0 L 1024.0 0.0 L 0.0 0.0 Z M 0.0 768.0 " fill="#FEFFFF"></path><image xlink:href="../../0099E750-43F4-4A1E-80C1-2076B752852F/assets/07D070F1F14A22F96AE4D30409DDE93E.png" width="1097.00" height="122.00" transform="matrix(0.93, 0.00, -0.00, -0.93, 0.0, 112.9)"></image><image xlink:href="../../0099E750-43F4-4A1E-80C1-2076B752852F/assets/71AF09E17046C42938E7FCF82766A0C8.png" width="900.00" height="506.00" transform="matrix(1.14, 0.00, -0.00, -1.14, -2.0, 1318.7)"></image><image xlink:href="../../0099E750-43F4-4A1E-80C1-2076B752852F/assets/ECA48F0F87CD79067F902164A110ABCE.png" width="2000.00" height="676.00" transform="matrix(0.08, 0.00, -0.00, -0.08, 836.9, 166.8)"></image><g><clipPath id="clip0x7f80dbc2ac40"><path d="M 112.0 624.0 L 950.0 624.0 L 950.0 191.0 L 112.0 191.0 Z M 111.6 623.9 "></path></clipPath><g clip-path="url(#clip0x7f80dbc2ac40)"><image xlink:href="18B7BAA4E21290E482A7637F4571DF8F.png" width="571.00" height="295.00" transform="matrix(1.47, 0.00, -0.00, -1.47, 111.6, 623.9)"></image></g></g><image xlink:href="../../3B71FF4A-854B-4811-B0AB-FB8E0894BF0B/assets/6BB3C3DC558A3B44916048579401EA05.png" width="1024.00" height="1024.00" transform="matrix(0.16, 0.00, -0.00, -0.16, 6.2, 737.4)"></image><text xml:space="preserve" font-family="HelveticaNeue-Light,Helvetica Neue" font-size="28.0" fill="#FEFFFE" transform="matrix(1.00, 0.00, -0.00, -1.00, 848.3, 4.9)">#</text><text xml:space="preserve" font-family="HelveticaNeue-Light,Helvetica Neue" font-size="28.0" fill="#FEFFFE" transform="matrix(1.00, 0.00, -0.00, -1.00, 863.9, 4.9)">D</text><text xml:space="preserve" font-family="HelveticaNeue-Light,Helvetica Neue" font-size="28.0" fill="#FEFFFE" transform="matrix(1.00, 0.00, -0.00, -1.00, 883.1, 4.9)">e</text><text xml:space="preserve" font-family="HelveticaNeue-Light,Helvetica Neue" font-size="28.0" fill="#FEFFFE" transform="matrix(1.00, 0.00, -0.00, -1.00, 897.6, 4.9)">v</text><text xml:space="preserve" font-family="HelveticaNeue-Light,Helvetica Neue" font-size="28.0" fill="#FEFFFE" transform="matrix(1.00, 0.00, -0.00, -1.00, 910.6, 4.9)">F</text><text xml:space="preserve" font-family="HelveticaNeue-Light,Helvetica Neue" font-size="28.0" fill="#FEFFFE" transform="matrix(1.00, 0.00, -0.00, -1.00, 925.6, 4.9)">e</text><text xml:space="preserve" font-family="HelveticaNeue-Light,Helvetica Neue" font-size="28.0" fill="#FEFFFE" transform="matrix(1.00, 0.00, -0.00, -1.00, 940.1, 4.9)">s</text><text xml:space="preserve" font-family="HelveticaNeue-Light,Helvetica Neue" font-size="28.0" fill="#FEFFFE" transform="matrix(1.00, 0.00, -0.00, -1.00, 953.6, 4.9)">t</text><text xml:space="preserve" font-family="HelveticaNeue-Light,Helvetica Neue" font-size="28.0" fill="#FEFFFE" transform="matrix(1.00, 0.00, -0.00, -1.00, 961.9, 4.9)">G</text><text xml:space="preserve" font-family="HelveticaNeue-Light,Helvetica Neue" font-size="28.0" fill="#FEFFFE" transform="matrix(1.00, 0.00, -0.00, -1.00, 982.6, 4.9)">R</text><text xml:space="preserve" font-family="HelveticaNeue-Light,Helvetica Neue" font-size="28.0" fill="#FEFFFE" transform="matrix(1.00, 0.00, -0.00, -1.00, 1001.3, 4.9)">X</text></g></svg>