<?xml version="1.0" encoding="UTF-8" standalone="no"?><svg xmlns="http://www.w3.org/2000/svg" xmlns:xlink="http://www.w3.org/1999/xlink" clip-rule="evenodd" stroke-miterlimit="10" viewBox="0 0 1024 768"><desc>SVG generated by Keynote</desc><defs></defs><g transform="matrix(1.00, 0.00, -0.00, -1.00, 0.0, 768.0)"><path d="M 0.0 768.0 L 1024.0 768.0 L 1024.0 0.0 L 0.0 0.0 Z M 0.0 768.0 " fill="#FEFFFF"></path><image xlink:href="../../0099E750-43F4-4A1E-80C1-2076B752852F/assets/07D070F1F14A22F96AE4D30409DDE93E.png" width="1097.00" height="122.00" transform="matrix(0.93, 0.00, -0.00, -0.93, 0.0, 112.9)"></image><image xlink:href="../../0099E750-43F4-4A1E-80C1-2076B752852F/assets/71AF09E17046C42938E7FCF82766A0C8.png" width="900.00" height="506.00" transform="matrix(1.14, 0.00, -0.00, -1.14, -2.0, 1318.7)"></image><image xlink:href="../../0099E750-43F4-4A1E-80C1-2076B752852F/assets/ECA48F0F87CD79067F902164A110ABCE.png" width="2000.00" height="676.00" transform="matrix(0.08, 0.00, -0.00, -0.08, 836.9, 166.8)"></image><image xlink:href="../../396E5887-D523-43EF-BC2C-2B41E5513B15/assets/9A4BB6FAC8EF57A811C1CB630A0D30C6.png" width="492.00" height="47.00" transform="matrix(1.00, 0.00, -0.00, -1.00, -4.0, 671.9)" opacity="0.50"></image><path d="M -1.0 671.0 L 485.0 671.0 L 485.0 630.0 L -1.0 630.0 Z M -1.0 670.9 " fill="#C82505"></path><g><clipPath id="clip0x7f80db5b7700"><path d="M 0.0 633.9 L 490.4 633.9 L 490.4 666.9 L 0.0 666.9 Z M 0.0 633.9 "></path></clipPath><g clip-path="url(#clip0x7f80db5b7700)"><text xml:space="preserve" font-family="Oswald-Medium,Oswald" font-size="28.0" fill="#FEFFFE" transform="matrix(1.00, 0.00, -0.00, -1.00, 66.0, 636.4)">P</text><text xml:space="preserve" font-family="Oswald-Medium,Oswald" font-size="28.0" fill="#FEFFFE" transform="matrix(1.00, 0.00, -0.00, -1.00, 80.5, 636.4)">L</text><text xml:space="preserve" font-family="Oswald-Medium,Oswald" font-size="28.0" fill="#FEFFFE" transform="matrix(1.00, 0.00, -0.00, -1.00, 92.3, 636.4)">A</text><text xml:space="preserve" font-family="Oswald-Medium,Oswald" font-size="28.0" fill="#FEFFFE" transform="matrix(1.00, 0.00, -0.00, -1.00, 106.1, 636.4)">T</text><text xml:space="preserve" font-family="Oswald-Medium,Oswald" font-size="28.0" fill="#FEFFFE" transform="matrix(1.00, 0.00, -0.00, -1.00, 117.8, 636.4)">A</text><text xml:space="preserve" font-family="Oswald-Medium,Oswald" font-size="28.0" fill="#FEFFFE" transform="matrix(1.00, 0.00, -0.00, -1.00, 132.4, 636.4)">F</text><text xml:space="preserve" font-family="Oswald-Medium,Oswald" font-size="28.0" fill="#FEFFFE" transform="matrix(1.00, 0.00, -0.00, -1.00, 143.8, 636.4)">O</text><text xml:space="preserve" font-family="Oswald-Medium,Oswald" font-size="28.0" fill="#FEFFFE" transform="matrix(1.00, 0.00, -0.00, -1.00, 159.6, 636.4)">R</text><text xml:space="preserve" font-family="Oswald-Medium,Oswald" font-size="28.0" fill="#FEFFFE" transform="matrix(1.00, 0.00, -0.00, -1.00, 175.1, 636.4)">M</text><text xml:space="preserve" font-family="Oswald-Medium,Oswald" font-size="28.0" fill="#FEFFFE" transform="matrix(1.00, 0.00, -0.00, -1.00, 194.2, 636.4)">A</text><text xml:space="preserve" font-family="Oswald-Medium,Oswald" font-size="28.0" fill="#FEFFFE" transform="matrix(1.00, 0.00, -0.00, -1.00, 208.7, 636.4)"> </text><text xml:space="preserve" font-family="Oswald-Medium,Oswald" font-size="28.0" fill="#FEFFFE" transform="matrix(1.00, 0.00, -0.00, -1.00, 215.6, 636.4)"> </text><text xml:space="preserve" font-family="Oswald-Medium,Oswald" font-size="28.0" fill="#FEFFFE" transform="matrix(1.00, 0.00, -0.00, -1.00, 222.4, 636.4)">C</text><text xml:space="preserve" font-family="Oswald-Medium,Oswald" font-size="28.0" fill="#FEFFFE" transform="matrix(1.00, 0.00, -0.00, -1.00, 237.5, 636.4)">O</text><text xml:space="preserve" font-family="Oswald-Medium,Oswald" font-size="28.0" fill="#FEFFFE" transform="matrix(1.00, 0.00, -0.00, -1.00, 253.2, 636.4)">M</text><text xml:space="preserve" font-family="Oswald-Medium,Oswald" font-size="28.0" fill="#FEFFFE" transform="matrix(1.00, 0.00, -0.00, -1.00, 272.3, 636.4)">O</text><text xml:space="preserve" font-family="Oswald-Medium,Oswald" font-size="28.0" fill="#FEFFFE" transform="matrix(1.00, 0.00, -0.00, -1.00, 288.0, 636.4)"> </text><text xml:space="preserve" font-family="Oswald-Medium,Oswald" font-size="28.0" fill="#FEFFFE" transform="matrix(1.00, 0.00, -0.00, -1.00, 294.8, 636.4)">S</text><text xml:space="preserve" font-family="Oswald-Medium,Oswald" font-size="28.0" fill="#FEFFFE" transform="matrix(1.00, 0.00, -0.00, -1.00, 308.7, 636.4)">E</text><text xml:space="preserve" font-family="Oswald-Medium,Oswald" font-size="28.0" fill="#FEFFFE" transform="matrix(1.00, 0.00, -0.00, -1.00, 320.6, 636.4)">R</text><text xml:space="preserve" font-family="Oswald-Medium,Oswald" font-size="28.0" fill="#FEFFFE" transform="matrix(1.00, 0.00, -0.00, -1.00, 336.1, 636.4)">V</text><text xml:space="preserve" font-family="Oswald-Medium,Oswald" font-size="28.0" fill="#FEFFFE" transform="matrix(1.00, 0.00, -0.00, -1.00, 350.6, 636.4)">I</text><text xml:space="preserve" font-family="Oswald-Medium,Oswald" font-size="28.0" fill="#FEFFFE" transform="matrix(1.00, 0.00, -0.00, -1.00, 358.2, 636.4)">C</text><text xml:space="preserve" font-family="Oswald-Medium,Oswald" font-size="28.0" fill="#FEFFFE" transform="matrix(1.00, 0.00, -0.00, -1.00, 373.3, 636.4)">I</text><text xml:space="preserve" font-family="Oswald-Medium,Oswald" font-size="28.0" fill="#FEFFFE" transform="matrix(1.00, 0.00, -0.00, -1.00, 381.0, 636.4)">O</text><text xml:space="preserve" font-family="Oswald-Medium,Oswald" font-size="28.0" fill="#FEFFFE" transform="matrix(1.00, 0.00, -0.00, -1.00, 396.7, 636.4)"> </text><text xml:space="preserve" font-family="Oswald-Medium,Oswald" font-size="28.0" fill="#FEFFFE" transform="matrix(1.00, 0.00, -0.00, -1.00, 403.6, 636.4)"> </text><text xml:space="preserve" font-family="Oswald-Medium,Oswald" font-size="28.0" fill="#FEFFFE" transform="matrix(1.00, 0.00, -0.00, -1.00, 410.4, 636.4)">(</text><text xml:space="preserve" font-family="Oswald-Medium,Oswald" font-size="28.0" fill="#FEFFFE" transform="matrix(1.00, 0.00, -0.00, -1.00, 419.3, 636.4)">P</text><text xml:space="preserve" font-family="Oswald-Medium,Oswald" font-size="28.0" fill="#FEFFFE" transform="matrix(1.00, 0.00, -0.00, -1.00, 433.6, 636.4)">a</text><text xml:space="preserve" font-family="Oswald-Medium,Oswald" font-size="28.0" fill="#FEFFFE" transform="matrix(1.00, 0.00, -0.00, -1.00, 446.3, 636.4)">a</text><text xml:space="preserve" font-family="Oswald-Medium,Oswald" font-size="28.0" fill="#FEFFFE" transform="matrix(1.00, 0.00, -0.00, -1.00, 459.0, 636.4)">S</text><text xml:space="preserve" font-family="Oswald-Medium,Oswald" font-size="28.0" fill="#FEFFFE" transform="matrix(1.00, 0.00, -0.00, -1.00, 472.8, 636.4)">)</text></g></g><text xml:space="preserve" font-family="Helvetica-Light,Helvetica" font-size="36.0" fill="#000000" transform="matrix(1.00, 0.00, -0.00, -1.00, 100.6, 526.6)">E</text><text xml:space="preserve" font-family="Helvetica-Light,Helvetica" font-size="36.0" fill="#000000" transform="matrix(1.00, 0.00, -0.00, -1.00, 122.6, 526.6)">l</text><text xml:space="preserve" font-family="Helvetica-Light,Helvetica" font-size="36.0" fill="#000000" transform="matrix(1.00, 0.00, -0.00, -1.00, 130.6, 526.6)"> </text><text xml:space="preserve" font-family="Helvetica-Light,Helvetica" font-size="36.0" fill="#000000" transform="matrix(1.00, 0.00, -0.00, -1.00, 140.6, 526.6)">m</text><text xml:space="preserve" font-family="Helvetica-Light,Helvetica" font-size="36.0" fill="#000000" transform="matrix(1.00, 0.00, -0.00, -1.00, 170.6, 526.6)">o</text><text xml:space="preserve" font-family="Helvetica-Light,Helvetica" font-size="36.0" fill="#000000" transform="matrix(1.00, 0.00, -0.00, -1.00, 190.6, 526.6)">d</text><text xml:space="preserve" font-family="Helvetica-Light,Helvetica" font-size="36.0" fill="#000000" transform="matrix(1.00, 0.00, -0.00, -1.00, 212.6, 526.6)">e</text><text xml:space="preserve" font-family="Helvetica-Light,Helvetica" font-size="36.0" fill="#000000" transform="matrix(1.00, 0.00, -0.00, -1.00, 232.7, 526.6)">l</text><text xml:space="preserve" font-family="Helvetica-Light,Helvetica" font-size="36.0" fill="#000000" transform="matrix(1.00, 0.00, -0.00, -1.00, 240.7, 526.6)">o</text><text xml:space="preserve" font-family="Helvetica-Light,Helvetica" font-size="36.0" fill="#000000" transform="matrix(1.00, 0.00, -0.00, -1.00, 260.7, 526.6)"> </text><text xml:space="preserve" font-family="Helvetica-Light,Helvetica" font-size="36.0" fill="#000000" transform="matrix(1.00, 0.00, -0.00, -1.00, 270.7, 526.6)">P</text><text xml:space="preserve" font-family="Helvetica-Light,Helvetica" font-size="36.0" fill="#000000" transform="matrix(1.00, 0.00, -0.00, -1.00, 292.7, 526.6)">a</text><text xml:space="preserve" font-family="Helvetica-Light,Helvetica" font-size="36.0" fill="#000000" transform="matrix(1.00, 0.00, -0.00, -1.00, 312.7, 526.6)">a</text><text xml:space="preserve" font-family="Helvetica-Light,Helvetica" font-size="36.0" fill="#000000" transform="matrix(1.00, 0.00, -0.00, -1.00, 332.7, 526.6)">S</text><text xml:space="preserve" font-family="Helvetica-Light,Helvetica" font-size="36.0" fill="#000000" transform="matrix(1.00, 0.00, -0.00, -1.00, 354.7, 526.6)"> </text><text xml:space="preserve" font-family="Helvetica-Light,Helvetica" font-size="36.0" fill="#000000" transform="matrix(1.00, 0.00, -0.00, -1.00, 364.7, 526.6)">p</text><text xml:space="preserve" font-family="Helvetica-Light,Helvetica" font-size="36.0" fill="#000000" transform="matrix(1.00, 0.00, -0.00, -1.00, 386.7, 526.6)">e</text><text xml:space="preserve" font-family="Helvetica-Light,Helvetica" font-size="36.0" fill="#000000" transform="matrix(1.00, 0.00, -0.00, -1.00, 406.7, 526.6)">r</text><text xml:space="preserve" font-family="Helvetica-Light,Helvetica" font-size="36.0" fill="#000000" transform="matrix(1.00, 0.00, -0.00, -1.00, 419.4, 526.6)">m</text><text xml:space="preserve" font-family="Helvetica-Light,Helvetica" font-size="36.0" fill="#000000" transform="matrix(1.00, 0.00, -0.00, -1.00, 449.3, 526.6)">i</text><text xml:space="preserve" font-family="Helvetica-Light,Helvetica" font-size="36.0" fill="#000000" transform="matrix(1.00, 0.00, -0.00, -1.00, 457.3, 526.6)">t</text><text xml:space="preserve" font-family="Helvetica-Light,Helvetica" font-size="36.0" fill="#000000" transform="matrix(1.00, 0.00, -0.00, -1.00, 467.3, 526.6)">e</text><text xml:space="preserve" font-family="Helvetica-Light,Helvetica" font-size="36.0" fill="#000000" transform="matrix(1.00, 0.00, -0.00, -1.00, 487.4, 526.6)"> </text><text xml:space="preserve" font-family="Helvetica-Light,Helvetica" font-size="36.0" fill="#000000" transform="matrix(1.00, 0.00, -0.00, -1.00, 497.4, 526.6)">a</text><text xml:space="preserve" font-family="Helvetica-Light,Helvetica" font-size="36.0" fill="#000000" transform="matrix(1.00, 0.00, -0.00, -1.00, 517.4, 526.6)"> </text><text xml:space="preserve" font-family="Helvetica-Light,Helvetica" font-size="36.0" fill="#000000" transform="matrix(1.00, 0.00, -0.00, -1.00, 527.4, 526.6)">l</text><text xml:space="preserve" font-family="Helvetica-Light,Helvetica" font-size="36.0" fill="#000000" transform="matrix(1.00, 0.00, -0.00, -1.00, 535.4, 526.6)">o</text><text xml:space="preserve" font-family="Helvetica-Light,Helvetica" font-size="36.0" fill="#000000" transform="matrix(1.00, 0.00, -0.00, -1.00, 555.4, 526.6)">s</text><text xml:space="preserve" font-family="Helvetica-Light,Helvetica" font-size="36.0" fill="#000000" transform="matrix(1.00, 0.00, -0.00, -1.00, 573.4, 526.6)"> </text><text xml:space="preserve" font-family="Helvetica-Light,Helvetica" font-size="36.0" fill="#000000" transform="matrix(1.00, 0.00, -0.00, -1.00, 583.4, 526.6)">u</text><text xml:space="preserve" font-family="Helvetica-Light,Helvetica" font-size="36.0" fill="#000000" transform="matrix(1.00, 0.00, -0.00, -1.00, 603.4, 526.6)">s</text><text xml:space="preserve" font-family="Helvetica-Light,Helvetica" font-size="36.0" fill="#000000" transform="matrix(1.00, 0.00, -0.00, -1.00, 621.4, 526.6)">u</text><text xml:space="preserve" font-family="Helvetica-Light,Helvetica" font-size="36.0" fill="#000000" transform="matrix(1.00, 0.00, -0.00, -1.00, 641.4, 526.6)">a</text><text xml:space="preserve" font-family="Helvetica-Light,Helvetica" font-size="36.0" fill="#000000" transform="matrix(1.00, 0.00, -0.00, -1.00, 661.5, 526.6)">r</text><text xml:space="preserve" font-family="Helvetica-Light,Helvetica" font-size="36.0" fill="#000000" transform="matrix(1.00, 0.00, -0.00, -1.00, 673.4, 526.6)">i</text><text xml:space="preserve" font-family="Helvetica-Light,Helvetica" font-size="36.0" fill="#000000" transform="matrix(1.00, 0.00, -0.00, -1.00, 681.4, 526.6)">o</text><text xml:space="preserve" font-family="Helvetica-Light,Helvetica" font-size="36.0" fill="#000000" transform="matrix(1.00, 0.00, -0.00, -1.00, 701.5, 526.6)">s</text><text xml:space="preserve" font-family="Helvetica-Light,Helvetica" font-size="36.0" fill="#000000" transform="matrix(1.00, 0.00, -0.00, -1.00, 719.5, 526.6)"> </text><text xml:space="preserve" font-family="Helvetica-Light,Helvetica" font-size="36.0" fill="#000000" transform="matrix(1.00, 0.00, -0.00, -1.00, 729.5, 526.6)">c</text><text xml:space="preserve" font-family="Helvetica-Light,Helvetica" font-size="36.0" fill="#000000" transform="matrix(1.00, 0.00, -0.00, -1.00, 749.5, 526.6)">r</text><text xml:space="preserve" font-family="Helvetica-Light,Helvetica" font-size="36.0" fill="#000000" transform="matrix(1.00, 0.00, -0.00, -1.00, 760.8, 526.6)">e</text><text xml:space="preserve" font-family="Helvetica-Light,Helvetica" font-size="36.0" fill="#000000" transform="matrix(1.00, 0.00, -0.00, -1.00, 780.8, 526.6)">a</text><text xml:space="preserve" font-family="Helvetica-Light,Helvetica" font-size="36.0" fill="#000000" transform="matrix(1.00, 0.00, -0.00, -1.00, 800.8, 526.6)">r</text><text xml:space="preserve" font-family="Helvetica-Light,Helvetica" font-size="36.0" fill="#000000" transform="matrix(1.00, 0.00, -0.00, -1.00, 812.8, 526.6)"> </text><text xml:space="preserve" font-family="Helvetica-Light,Helvetica" font-size="36.0" fill="#000000" transform="matrix(1.00, 0.00, -0.00, -1.00, 100.6, 483.6)">a</text><text xml:space="preserve" font-family="Helvetica-Light,Helvetica" font-size="36.0" fill="#000000" transform="matrix(1.00, 0.00, -0.00, -1.00, 120.7, 483.6)">p</text><text xml:space="preserve" font-family="Helvetica-Light,Helvetica" font-size="36.0" fill="#000000" transform="matrix(1.00, 0.00, -0.00, -1.00, 142.7, 483.6)">l</text><text xml:space="preserve" font-family="Helvetica-Light,Helvetica" font-size="36.0" fill="#000000" transform="matrix(1.00, 0.00, -0.00, -1.00, 150.7, 483.6)">i</text><text xml:space="preserve" font-family="Helvetica-Light,Helvetica" font-size="36.0" fill="#000000" transform="matrix(1.00, 0.00, -0.00, -1.00, 158.6, 483.6)">c</text><text xml:space="preserve" font-family="Helvetica-Light,Helvetica" font-size="36.0" fill="#000000" transform="matrix(1.00, 0.00, -0.00, -1.00, 178.7, 483.6)">a</text><text xml:space="preserve" font-family="Helvetica-Light,Helvetica" font-size="36.0" fill="#000000" transform="matrix(1.00, 0.00, -0.00, -1.00, 198.7, 483.6)">c</text><text xml:space="preserve" font-family="Helvetica-Light,Helvetica" font-size="36.0" fill="#000000" transform="matrix(1.00, 0.00, -0.00, -1.00, 218.7, 483.6)">i</text><text xml:space="preserve" font-family="Helvetica-Light,Helvetica" font-size="36.0" fill="#000000" transform="matrix(1.00, 0.00, -0.00, -1.00, 226.7, 483.6)">o</text><text xml:space="preserve" font-family="Helvetica-Light,Helvetica" font-size="36.0" fill="#000000" transform="matrix(1.00, 0.00, -0.00, -1.00, 246.7, 483.6)">n</text><text xml:space="preserve" font-family="Helvetica-Light,Helvetica" font-size="36.0" fill="#000000" transform="matrix(1.00, 0.00, -0.00, -1.00, 266.7, 483.6)">e</text><text xml:space="preserve" font-family="Helvetica-Light,Helvetica" font-size="36.0" fill="#000000" transform="matrix(1.00, 0.00, -0.00, -1.00, 286.7, 483.6)">s</text><text xml:space="preserve" font-family="Helvetica-Light,Helvetica" font-size="36.0" fill="#000000" transform="matrix(1.00, 0.00, -0.00, -1.00, 304.7, 483.6)"> </text><text xml:space="preserve" font-family="Helvetica-Light,Helvetica" font-size="36.0" fill="#000000" transform="matrix(1.00, 0.00, -0.00, -1.00, 314.7, 483.6)">d</text><text xml:space="preserve" font-family="Helvetica-Light,Helvetica" font-size="36.0" fill="#000000" transform="matrix(1.00, 0.00, -0.00, -1.00, 336.7, 483.6)">e</text><text xml:space="preserve" font-family="Helvetica-Light,Helvetica" font-size="36.0" fill="#000000" transform="matrix(1.00, 0.00, -0.00, -1.00, 356.8, 483.6)"> </text><text xml:space="preserve" font-family="Helvetica-Light,Helvetica" font-size="36.0" fill="#000000" transform="matrix(1.00, 0.00, -0.00, -1.00, 366.8, 483.6)">s</text><text xml:space="preserve" font-family="Helvetica-Light,Helvetica" font-size="36.0" fill="#000000" transform="matrix(1.00, 0.00, -0.00, -1.00, 384.8, 483.6)">o</text><text xml:space="preserve" font-family="Helvetica-Light,Helvetica" font-size="36.0" fill="#000000" transform="matrix(1.00, 0.00, -0.00, -1.00, 404.8, 483.6)">f</text><text xml:space="preserve" font-family="Helvetica-Light,Helvetica" font-size="36.0" fill="#000000" transform="matrix(1.00, 0.00, -0.00, -1.00, 414.8, 483.6)">t</text><text xml:space="preserve" font-family="Helvetica-Light,Helvetica" font-size="36.0" fill="#000000" transform="matrix(1.00, 0.00, -0.00, -1.00, 424.8, 483.6)">w</text><text xml:space="preserve" font-family="Helvetica-Light,Helvetica" font-size="36.0" fill="#000000" transform="matrix(1.00, 0.00, -0.00, -1.00, 450.8, 483.6)">a</text><text xml:space="preserve" font-family="Helvetica-Light,Helvetica" font-size="36.0" fill="#000000" transform="matrix(1.00, 0.00, -0.00, -1.00, 470.8, 483.6)">r</text><text xml:space="preserve" font-family="Helvetica-Light,Helvetica" font-size="36.0" fill="#000000" transform="matrix(1.00, 0.00, -0.00, -1.00, 482.1, 483.6)">e</text><text xml:space="preserve" font-family="Helvetica-Light,Helvetica" font-size="36.0" fill="#000000" transform="matrix(1.00, 0.00, -0.00, -1.00, 502.2, 483.6)"> </text><text xml:space="preserve" font-family="Helvetica-Light,Helvetica" font-size="36.0" fill="#000000" transform="matrix(1.00, 0.00, -0.00, -1.00, 512.2, 483.6)">u</text><text xml:space="preserve" font-family="Helvetica-Light,Helvetica" font-size="36.0" fill="#000000" transform="matrix(1.00, 0.00, -0.00, -1.00, 532.2, 483.6)">t</text><text xml:space="preserve" font-family="Helvetica-Light,Helvetica" font-size="36.0" fill="#000000" transform="matrix(1.00, 0.00, -0.00, -1.00, 542.2, 483.6)">i</text><text xml:space="preserve" font-family="Helvetica-Light,Helvetica" font-size="36.0" fill="#000000" transform="matrix(1.00, 0.00, -0.00, -1.00, 550.2, 483.6)">l</text><text xml:space="preserve" font-family="Helvetica-Light,Helvetica" font-size="36.0" fill="#000000" transform="matrix(1.00, 0.00, -0.00, -1.00, 558.2, 483.6)">i</text><text xml:space="preserve" font-family="Helvetica-Light,Helvetica" font-size="36.0" fill="#000000" transform="matrix(1.00, 0.00, -0.00, -1.00, 566.2, 483.6)">z</text><text xml:space="preserve" font-family="Helvetica-Light,Helvetica" font-size="36.0" fill="#000000" transform="matrix(1.00, 0.00, -0.00, -1.00, 584.2, 483.6)">a</text><text xml:space="preserve" font-family="Helvetica-Light,Helvetica" font-size="36.0" fill="#000000" transform="matrix(1.00, 0.00, -0.00, -1.00, 604.2, 483.6)">n</text><text xml:space="preserve" font-family="Helvetica-Light,Helvetica" font-size="36.0" fill="#000000" transform="matrix(1.00, 0.00, -0.00, -1.00, 624.2, 483.6)">d</text><text xml:space="preserve" font-family="Helvetica-Light,Helvetica" font-size="36.0" fill="#000000" transform="matrix(1.00, 0.00, -0.00, -1.00, 646.2, 483.6)">o</text><text xml:space="preserve" font-family="Helvetica-Light,Helvetica" font-size="36.0" fill="#000000" transform="matrix(1.00, 0.00, -0.00, -1.00, 666.2, 483.6)"> </text><text xml:space="preserve" font-family="Helvetica-Light,Helvetica" font-size="36.0" fill="#000000" transform="matrix(1.00, 0.00, -0.00, -1.00, 676.2, 483.6)">h</text><text xml:space="preserve" font-family="Helvetica-Light,Helvetica" font-size="36.0" fill="#000000" transform="matrix(1.00, 0.00, -0.00, -1.00, 696.2, 483.6)">e</text><text xml:space="preserve" font-family="Helvetica-Light,Helvetica" font-size="36.0" fill="#000000" transform="matrix(1.00, 0.00, -0.00, -1.00, 716.2, 483.6)">r</text><text xml:space="preserve" font-family="Helvetica-Light,Helvetica" font-size="36.0" fill="#000000" transform="matrix(1.00, 0.00, -0.00, -1.00, 728.2, 483.6)">r</text><text xml:space="preserve" font-family="Helvetica-Light,Helvetica" font-size="36.0" fill="#000000" transform="matrix(1.00, 0.00, -0.00, -1.00, 740.2, 483.6)">a</text><text xml:space="preserve" font-family="Helvetica-Light,Helvetica" font-size="36.0" fill="#000000" transform="matrix(1.00, 0.00, -0.00, -1.00, 760.2, 483.6)">m</text><text xml:space="preserve" font-family="Helvetica-Light,Helvetica" font-size="36.0" fill="#000000" transform="matrix(1.00, 0.00, -0.00, -1.00, 790.2, 483.6)">i</text><text xml:space="preserve" font-family="Helvetica-Light,Helvetica" font-size="36.0" fill="#000000" transform="matrix(1.00, 0.00, -0.00, -1.00, 798.2, 483.6)">e</text><text xml:space="preserve" font-family="Helvetica-Light,Helvetica" font-size="36.0" fill="#000000" transform="matrix(1.00, 0.00, -0.00, -1.00, 818.2, 483.6)">n</text><text xml:space="preserve" font-family="Helvetica-Light,Helvetica" font-size="36.0" fill="#000000" transform="matrix(1.00, 0.00, -0.00, -1.00, 838.3, 483.6)">t</text><text xml:space="preserve" font-family="Helvetica-Light,Helvetica" font-size="36.0" fill="#000000" transform="matrix(1.00, 0.00, -0.00, -1.00, 848.3, 483.6)">a</text><text xml:space="preserve" font-family="Helvetica-Light,Helvetica" font-size="36.0" fill="#000000" transform="matrix(1.00, 0.00, -0.00, -1.00, 868.3, 483.6)">s</text><text xml:space="preserve" font-family="Helvetica-Light,Helvetica" font-size="36.0" fill="#000000" transform="matrix(1.00, 0.00, -0.00, -1.00, 886.3, 483.6)"> </text><text xml:space="preserve" font-family="Helvetica-Light,Helvetica" font-size="36.0" fill="#000000" transform="matrix(1.00, 0.00, -0.00, -1.00, 100.6, 440.6)">s</text><text xml:space="preserve" font-family="Helvetica-Light,Helvetica" font-size="36.0" fill="#000000" transform="matrix(1.00, 0.00, -0.00, -1.00, 118.6, 440.6)">u</text><text xml:space="preserve" font-family="Helvetica-Light,Helvetica" font-size="36.0" fill="#000000" transform="matrix(1.00, 0.00, -0.00, -1.00, 138.7, 440.6)">m</text><text xml:space="preserve" font-family="Helvetica-Light,Helvetica" font-size="36.0" fill="#000000" transform="matrix(1.00, 0.00, -0.00, -1.00, 168.7, 440.6)">i</text><text xml:space="preserve" font-family="Helvetica-Light,Helvetica" font-size="36.0" fill="#000000" transform="matrix(1.00, 0.00, -0.00, -1.00, 176.6, 440.6)">n</text><text xml:space="preserve" font-family="Helvetica-Light,Helvetica" font-size="36.0" fill="#000000" transform="matrix(1.00, 0.00, -0.00, -1.00, 196.7, 440.6)">i</text><text xml:space="preserve" font-family="Helvetica-Light,Helvetica" font-size="36.0" fill="#000000" transform="matrix(1.00, 0.00, -0.00, -1.00, 204.7, 440.6)">s</text><text xml:space="preserve" font-family="Helvetica-Light,Helvetica" font-size="36.0" fill="#000000" transform="matrix(1.00, 0.00, -0.00, -1.00, 222.7, 440.6)">t</text><text xml:space="preserve" font-family="Helvetica-Light,Helvetica" font-size="36.0" fill="#000000" transform="matrix(1.00, 0.00, -0.00, -1.00, 232.7, 440.6)">r</text><text xml:space="preserve" font-family="Helvetica-Light,Helvetica" font-size="36.0" fill="#000000" transform="matrix(1.00, 0.00, -0.00, -1.00, 244.6, 440.6)">a</text><text xml:space="preserve" font-family="Helvetica-Light,Helvetica" font-size="36.0" fill="#000000" transform="matrix(1.00, 0.00, -0.00, -1.00, 264.7, 440.6)">d</text><text xml:space="preserve" font-family="Helvetica-Light,Helvetica" font-size="36.0" fill="#000000" transform="matrix(1.00, 0.00, -0.00, -1.00, 286.7, 440.6)">a</text><text xml:space="preserve" font-family="Helvetica-Light,Helvetica" font-size="36.0" fill="#000000" transform="matrix(1.00, 0.00, -0.00, -1.00, 306.7, 440.6)">s</text><text xml:space="preserve" font-family="Helvetica-Light,Helvetica" font-size="36.0" fill="#000000" transform="matrix(1.00, 0.00, -0.00, -1.00, 324.7, 440.6)"> </text><text xml:space="preserve" font-family="Helvetica-Light,Helvetica" font-size="36.0" fill="#000000" transform="matrix(1.00, 0.00, -0.00, -1.00, 334.7, 440.6)">p</text><text xml:space="preserve" font-family="Helvetica-Light,Helvetica" font-size="36.0" fill="#000000" transform="matrix(1.00, 0.00, -0.00, -1.00, 356.7, 440.6)">o</text><text xml:space="preserve" font-family="Helvetica-Light,Helvetica" font-size="36.0" fill="#000000" transform="matrix(1.00, 0.00, -0.00, -1.00, 376.7, 440.6)">r</text><text xml:space="preserve" font-family="Helvetica-Light,Helvetica" font-size="36.0" fill="#000000" transform="matrix(1.00, 0.00, -0.00, -1.00, 388.7, 440.6)"> </text><text xml:space="preserve" font-family="Helvetica-Light,Helvetica" font-size="36.0" fill="#000000" transform="matrix(1.00, 0.00, -0.00, -1.00, 398.7, 440.6)">e</text><text xml:space="preserve" font-family="Helvetica-Light,Helvetica" font-size="36.0" fill="#000000" transform="matrix(1.00, 0.00, -0.00, -1.00, 418.7, 440.6)">l</text><text xml:space="preserve" font-family="Helvetica-Light,Helvetica" font-size="36.0" fill="#000000" transform="matrix(1.00, 0.00, -0.00, -1.00, 426.7, 440.6)"> </text><text xml:space="preserve" font-family="Helvetica-Light,Helvetica" font-size="36.0" fill="#000000" transform="matrix(1.00, 0.00, -0.00, -1.00, 436.7, 440.6)">p</text><text xml:space="preserve" font-family="Helvetica-Light,Helvetica" font-size="36.0" fill="#000000" transform="matrix(1.00, 0.00, -0.00, -1.00, 458.7, 440.6)">r</text><text xml:space="preserve" font-family="Helvetica-Light,Helvetica" font-size="36.0" fill="#000000" transform="matrix(1.00, 0.00, -0.00, -1.00, 470.0, 440.6)">o</text><text xml:space="preserve" font-family="Helvetica-Light,Helvetica" font-size="36.0" fill="#000000" transform="matrix(1.00, 0.00, -0.00, -1.00, 490.1, 440.6)">v</text><text xml:space="preserve" font-family="Helvetica-Light,Helvetica" font-size="36.0" fill="#000000" transform="matrix(1.00, 0.00, -0.00, -1.00, 508.1, 440.6)">e</text><text xml:space="preserve" font-family="Helvetica-Light,Helvetica" font-size="36.0" fill="#000000" transform="matrix(1.00, 0.00, -0.00, -1.00, 528.1, 440.6)">e</text><text xml:space="preserve" font-family="Helvetica-Light,Helvetica" font-size="36.0" fill="#000000" transform="matrix(1.00, 0.00, -0.00, -1.00, 548.1, 440.6)">d</text><text xml:space="preserve" font-family="Helvetica-Light,Helvetica" font-size="36.0" fill="#000000" transform="matrix(1.00, 0.00, -0.00, -1.00, 570.1, 440.6)">o</text><text xml:space="preserve" font-family="Helvetica-Light,Helvetica" font-size="36.0" fill="#000000" transform="matrix(1.00, 0.00, -0.00, -1.00, 590.1, 440.6)">r</text><text xml:space="preserve" font-family="Helvetica-Light,Helvetica" font-size="36.0" fill="#000000" transform="matrix(1.00, 0.00, -0.00, -1.00, 602.1, 440.6)">:</text><text xml:space="preserve" font-family="Helvetica-Light,Helvetica" font-size="36.0" fill="#000000" transform="matrix(1.00, 0.00, -0.00, -1.00, 612.1, 440.6)"> </text><text xml:space="preserve" font-family="LucidaGrande,Lucida Grande" font-size="21.8" fill="#000000" transform="matrix(1.00, 0.00, -0.00, -1.00, 135.6, 371.4)">‣</text><text xml:space="preserve" font-family="Helvetica-Light,Helvetica" font-size="29.0" fill="#000000" transform="matrix(1.00, 0.00, -0.00, -1.00, 170.6, 369.0)">E</text><text xml:space="preserve" font-family="Helvetica-Light,Helvetica" font-size="29.0" fill="#000000" transform="matrix(1.00, 0.00, -0.00, -1.00, 188.4, 369.0)">n</text><text xml:space="preserve" font-family="Helvetica-Light,Helvetica" font-size="29.0" fill="#000000" transform="matrix(1.00, 0.00, -0.00, -1.00, 204.5, 369.0)">t</text><text xml:space="preserve" font-family="Helvetica-Light,Helvetica" font-size="29.0" fill="#000000" transform="matrix(1.00, 0.00, -0.00, -1.00, 212.6, 369.0)">o</text><text xml:space="preserve" font-family="Helvetica-Light,Helvetica" font-size="29.0" fill="#000000" transform="matrix(1.00, 0.00, -0.00, -1.00, 228.7, 369.0)">r</text><text xml:space="preserve" font-family="Helvetica-Light,Helvetica" font-size="29.0" fill="#000000" transform="matrix(1.00, 0.00, -0.00, -1.00, 238.9, 369.0)">n</text><text xml:space="preserve" font-family="Helvetica-Light,Helvetica" font-size="29.0" fill="#000000" transform="matrix(1.00, 0.00, -0.00, -1.00, 255.0, 369.0)">o</text><text xml:space="preserve" font-family="Helvetica-Light,Helvetica" font-size="29.0" fill="#000000" transform="matrix(1.00, 0.00, -0.00, -1.00, 271.1, 369.0)"> </text><text xml:space="preserve" font-family="Helvetica-Light,Helvetica" font-size="29.0" fill="#000000" transform="matrix(1.00, 0.00, -0.00, -1.00, 279.2, 369.0)">d</text><text xml:space="preserve" font-family="Helvetica-Light,Helvetica" font-size="29.0" fill="#000000" transform="matrix(1.00, 0.00, -0.00, -1.00, 296.9, 369.0)">e</text><text xml:space="preserve" font-family="Helvetica-Light,Helvetica" font-size="29.0" fill="#000000" transform="matrix(1.00, 0.00, -0.00, -1.00, 313.0, 369.0)"> </text><text xml:space="preserve" font-family="Helvetica-Light,Helvetica" font-size="29.0" fill="#000000" transform="matrix(1.00, 0.00, -0.00, -1.00, 321.1, 369.0)">s</text><text xml:space="preserve" font-family="Helvetica-Light,Helvetica" font-size="29.0" fill="#000000" transform="matrix(1.00, 0.00, -0.00, -1.00, 335.6, 369.0)">c</text><text xml:space="preserve" font-family="Helvetica-Light,Helvetica" font-size="29.0" fill="#000000" transform="matrix(1.00, 0.00, -0.00, -1.00, 351.7, 369.0)">r</text><text xml:space="preserve" font-family="Helvetica-Light,Helvetica" font-size="29.0" fill="#000000" transform="matrix(1.00, 0.00, -0.00, -1.00, 361.4, 369.0)">i</text><text xml:space="preserve" font-family="Helvetica-Light,Helvetica" font-size="29.0" fill="#000000" transform="matrix(1.00, 0.00, -0.00, -1.00, 367.8, 369.0)">p</text><text xml:space="preserve" font-family="Helvetica-Light,Helvetica" font-size="29.0" fill="#000000" transform="matrix(1.00, 0.00, -0.00, -1.00, 385.5, 369.0)">t</text><text xml:space="preserve" font-family="Helvetica-Light,Helvetica" font-size="29.0" fill="#000000" transform="matrix(1.00, 0.00, -0.00, -1.00, 393.6, 369.0)">i</text><text xml:space="preserve" font-family="Helvetica-Light,Helvetica" font-size="29.0" fill="#000000" transform="matrix(1.00, 0.00, -0.00, -1.00, 400.0, 369.0)">n</text><text xml:space="preserve" font-family="Helvetica-Light,Helvetica" font-size="29.0" fill="#000000" transform="matrix(1.00, 0.00, -0.00, -1.00, 416.1, 369.0)">g</text><text xml:space="preserve" font-family="Helvetica-Light,Helvetica" font-size="29.0" fill="#000000" transform="matrix(1.00, 0.00, -0.00, -1.00, 433.9, 369.0)"> </text><text xml:space="preserve" font-family="Helvetica-Light,Helvetica" font-size="29.0" fill="#000000" transform="matrix(1.00, 0.00, -0.00, -1.00, 441.9, 369.0)">d</text><text xml:space="preserve" font-family="Helvetica-Light,Helvetica" font-size="29.0" fill="#000000" transform="matrix(1.00, 0.00, -0.00, -1.00, 459.6, 369.0)">e</text><text xml:space="preserve" font-family="Helvetica-Light,Helvetica" font-size="29.0" fill="#000000" transform="matrix(1.00, 0.00, -0.00, -1.00, 475.8, 369.0)"> </text><text xml:space="preserve" font-family="Helvetica-Light,Helvetica" font-size="29.0" fill="#000000" transform="matrix(1.00, 0.00, -0.00, -1.00, 483.8, 369.0)">s</text><text xml:space="preserve" font-family="Helvetica-Light,Helvetica" font-size="29.0" fill="#000000" transform="matrix(1.00, 0.00, -0.00, -1.00, 498.3, 369.0)">e</text><text xml:space="preserve" font-family="Helvetica-Light,Helvetica" font-size="29.0" fill="#000000" transform="matrix(1.00, 0.00, -0.00, -1.00, 514.4, 369.0)">r</text><text xml:space="preserve" font-family="Helvetica-Light,Helvetica" font-size="29.0" fill="#000000" transform="matrix(1.00, 0.00, -0.00, -1.00, 524.1, 369.0)">v</text><text xml:space="preserve" font-family="Helvetica-Light,Helvetica" font-size="29.0" fill="#000000" transform="matrix(1.00, 0.00, -0.00, -1.00, 538.6, 369.0)">i</text><text xml:space="preserve" font-family="Helvetica-Light,Helvetica" font-size="29.0" fill="#000000" transform="matrix(1.00, 0.00, -0.00, -1.00, 545.0, 369.0)">d</text><text xml:space="preserve" font-family="Helvetica-Light,Helvetica" font-size="29.0" fill="#000000" transform="matrix(1.00, 0.00, -0.00, -1.00, 562.8, 369.0)">o</text><text xml:space="preserve" font-family="Helvetica-Light,Helvetica" font-size="29.0" fill="#000000" transform="matrix(1.00, 0.00, -0.00, -1.00, 578.9, 369.0)">r</text><text xml:space="preserve" font-family="Helvetica-Light,Helvetica" font-size="29.0" fill="#000000" transform="matrix(1.00, 0.00, -0.00, -1.00, 588.5, 369.0)"> </text><text xml:space="preserve" font-family="LucidaGrande,Lucida Grande" font-size="21.8" fill="#000000" transform="matrix(1.00, 0.00, -0.00, -1.00, 135.6, 336.4)">‣</text><text xml:space="preserve" font-family="Helvetica-Light,Helvetica" font-size="29.0" fill="#000000" transform="matrix(1.00, 0.00, -0.00, -1.00, 170.6, 334.0)">S</text><text xml:space="preserve" font-family="Helvetica-Light,Helvetica" font-size="29.0" fill="#000000" transform="matrix(1.00, 0.00, -0.00, -1.00, 188.4, 334.0)">i</text><text xml:space="preserve" font-family="Helvetica-Light,Helvetica" font-size="29.0" fill="#000000" transform="matrix(1.00, 0.00, -0.00, -1.00, 194.8, 334.0)">s</text><text xml:space="preserve" font-family="Helvetica-Light,Helvetica" font-size="29.0" fill="#000000" transform="matrix(1.00, 0.00, -0.00, -1.00, 209.3, 334.0)">t</text><text xml:space="preserve" font-family="Helvetica-Light,Helvetica" font-size="29.0" fill="#000000" transform="matrix(1.00, 0.00, -0.00, -1.00, 217.4, 334.0)">e</text><text xml:space="preserve" font-family="Helvetica-Light,Helvetica" font-size="29.0" fill="#000000" transform="matrix(1.00, 0.00, -0.00, -1.00, 233.5, 334.0)">m</text><text xml:space="preserve" font-family="Helvetica-Light,Helvetica" font-size="29.0" fill="#000000" transform="matrix(1.00, 0.00, -0.00, -1.00, 257.6, 334.0)">a</text><text xml:space="preserve" font-family="Helvetica-Light,Helvetica" font-size="29.0" fill="#000000" transform="matrix(1.00, 0.00, -0.00, -1.00, 273.8, 334.0)"> </text><text xml:space="preserve" font-family="Helvetica-Light,Helvetica" font-size="29.0" fill="#000000" transform="matrix(1.00, 0.00, -0.00, -1.00, 281.8, 334.0)">d</text><text xml:space="preserve" font-family="Helvetica-Light,Helvetica" font-size="29.0" fill="#000000" transform="matrix(1.00, 0.00, -0.00, -1.00, 299.6, 334.0)">e</text><text xml:space="preserve" font-family="Helvetica-Light,Helvetica" font-size="29.0" fill="#000000" transform="matrix(1.00, 0.00, -0.00, -1.00, 315.7, 334.0)"> </text><text xml:space="preserve" font-family="Helvetica-Light,Helvetica" font-size="29.0" fill="#000000" transform="matrix(1.00, 0.00, -0.00, -1.00, 323.7, 334.0)">g</text><text xml:space="preserve" font-family="Helvetica-Light,Helvetica" font-size="29.0" fill="#000000" transform="matrix(1.00, 0.00, -0.00, -1.00, 341.5, 334.0)">e</text><text xml:space="preserve" font-family="Helvetica-Light,Helvetica" font-size="29.0" fill="#000000" transform="matrix(1.00, 0.00, -0.00, -1.00, 357.6, 334.0)">s</text><text xml:space="preserve" font-family="Helvetica-Light,Helvetica" font-size="29.0" fill="#000000" transform="matrix(1.00, 0.00, -0.00, -1.00, 372.1, 334.0)">t</text><text xml:space="preserve" font-family="Helvetica-Light,Helvetica" font-size="29.0" fill="#000000" transform="matrix(1.00, 0.00, -0.00, -1.00, 380.1, 334.0)">i</text><text xml:space="preserve" font-family="Helvetica-Light,Helvetica" font-size="29.0" fill="#000000" transform="matrix(1.00, 0.00, -0.00, -1.00, 386.6, 334.0)">ó</text><text xml:space="preserve" font-family="Helvetica-Light,Helvetica" font-size="29.0" fill="#000000" transform="matrix(1.00, 0.00, -0.00, -1.00, 402.7, 334.0)">n</text><text xml:space="preserve" font-family="Helvetica-Light,Helvetica" font-size="29.0" fill="#000000" transform="matrix(1.00, 0.00, -0.00, -1.00, 418.8, 334.0)"> </text><text xml:space="preserve" font-family="Helvetica-Light,Helvetica" font-size="29.0" fill="#000000" transform="matrix(1.00, 0.00, -0.00, -1.00, 426.9, 334.0)">d</text><text xml:space="preserve" font-family="Helvetica-Light,Helvetica" font-size="29.0" fill="#000000" transform="matrix(1.00, 0.00, -0.00, -1.00, 444.6, 334.0)">e</text><text xml:space="preserve" font-family="Helvetica-Light,Helvetica" font-size="29.0" fill="#000000" transform="matrix(1.00, 0.00, -0.00, -1.00, 460.7, 334.0)"> </text><text xml:space="preserve" font-family="Helvetica-Light,Helvetica" font-size="29.0" fill="#000000" transform="matrix(1.00, 0.00, -0.00, -1.00, 468.8, 334.0)">b</text><text xml:space="preserve" font-family="Helvetica-Light,Helvetica" font-size="29.0" fill="#000000" transform="matrix(1.00, 0.00, -0.00, -1.00, 486.5, 334.0)">a</text><text xml:space="preserve" font-family="Helvetica-Light,Helvetica" font-size="29.0" fill="#000000" transform="matrix(1.00, 0.00, -0.00, -1.00, 502.6, 334.0)">s</text><text xml:space="preserve" font-family="Helvetica-Light,Helvetica" font-size="29.0" fill="#000000" transform="matrix(1.00, 0.00, -0.00, -1.00, 517.1, 334.0)">e</text><text xml:space="preserve" font-family="Helvetica-Light,Helvetica" font-size="29.0" fill="#000000" transform="matrix(1.00, 0.00, -0.00, -1.00, 533.3, 334.0)"> </text><text xml:space="preserve" font-family="Helvetica-Light,Helvetica" font-size="29.0" fill="#000000" transform="matrix(1.00, 0.00, -0.00, -1.00, 541.3, 334.0)">d</text><text xml:space="preserve" font-family="Helvetica-Light,Helvetica" font-size="29.0" fill="#000000" transform="matrix(1.00, 0.00, -0.00, -1.00, 559.0, 334.0)">e</text><text xml:space="preserve" font-family="Helvetica-Light,Helvetica" font-size="29.0" fill="#000000" transform="matrix(1.00, 0.00, -0.00, -1.00, 575.2, 334.0)"> </text><text xml:space="preserve" font-family="Helvetica-Light,Helvetica" font-size="29.0" fill="#000000" transform="matrix(1.00, 0.00, -0.00, -1.00, 583.2, 334.0)">d</text><text xml:space="preserve" font-family="Helvetica-Light,Helvetica" font-size="29.0" fill="#000000" transform="matrix(1.00, 0.00, -0.00, -1.00, 600.9, 334.0)">a</text><text xml:space="preserve" font-family="Helvetica-Light,Helvetica" font-size="29.0" fill="#000000" transform="matrix(1.00, 0.00, -0.00, -1.00, 617.1, 334.0)">t</text><text xml:space="preserve" font-family="Helvetica-Light,Helvetica" font-size="29.0" fill="#000000" transform="matrix(1.00, 0.00, -0.00, -1.00, 625.1, 334.0)">o</text><text xml:space="preserve" font-family="Helvetica-Light,Helvetica" font-size="29.0" fill="#000000" transform="matrix(1.00, 0.00, -0.00, -1.00, 641.3, 334.0)">s</text><text xml:space="preserve" font-family="Helvetica-Light,Helvetica" font-size="29.0" fill="#000000" transform="matrix(1.00, 0.00, -0.00, -1.00, 655.8, 334.0)"> </text><text xml:space="preserve" font-family="LucidaGrande,Lucida Grande" font-size="21.8" fill="#000000" transform="matrix(1.00, 0.00, -0.00, -1.00, 135.6, 301.4)">‣</text><text xml:space="preserve" font-family="Helvetica-Light,Helvetica" font-size="29.0" fill="#000000" transform="matrix(1.00, 0.00, -0.00, -1.00, 170.6, 299.0)">S</text><text xml:space="preserve" font-family="Helvetica-Light,Helvetica" font-size="29.0" fill="#000000" transform="matrix(1.00, 0.00, -0.00, -1.00, 188.4, 299.0)">o</text><text xml:space="preserve" font-family="Helvetica-Light,Helvetica" font-size="29.0" fill="#000000" transform="matrix(1.00, 0.00, -0.00, -1.00, 204.5, 299.0)">f</text><text xml:space="preserve" font-family="Helvetica-Light,Helvetica" font-size="29.0" fill="#000000" transform="matrix(1.00, 0.00, -0.00, -1.00, 212.6, 299.0)">t</text><text xml:space="preserve" font-family="Helvetica-Light,Helvetica" font-size="29.0" fill="#000000" transform="matrix(1.00, 0.00, -0.00, -1.00, 220.6, 299.0)">w</text><text xml:space="preserve" font-family="Helvetica-Light,Helvetica" font-size="29.0" fill="#000000" transform="matrix(1.00, 0.00, -0.00, -1.00, 241.6, 299.0)">a</text><text xml:space="preserve" font-family="Helvetica-Light,Helvetica" font-size="29.0" fill="#000000" transform="matrix(1.00, 0.00, -0.00, -1.00, 257.7, 299.0)">r</text><text xml:space="preserve" font-family="Helvetica-Light,Helvetica" font-size="29.0" fill="#000000" transform="matrix(1.00, 0.00, -0.00, -1.00, 266.8, 299.0)">e</text><text xml:space="preserve" font-family="Helvetica-Light,Helvetica" font-size="29.0" fill="#000000" transform="matrix(1.00, 0.00, -0.00, -1.00, 282.9, 299.0)"> </text><text xml:space="preserve" font-family="Helvetica-Light,Helvetica" font-size="29.0" fill="#000000" transform="matrix(1.00, 0.00, -0.00, -1.00, 291.0, 299.0)">d</text><text xml:space="preserve" font-family="Helvetica-Light,Helvetica" font-size="29.0" fill="#000000" transform="matrix(1.00, 0.00, -0.00, -1.00, 308.7, 299.0)">e</text><text xml:space="preserve" font-family="Helvetica-Light,Helvetica" font-size="29.0" fill="#000000" transform="matrix(1.00, 0.00, -0.00, -1.00, 324.8, 299.0)"> </text><text xml:space="preserve" font-family="Helvetica-Light,Helvetica" font-size="29.0" fill="#000000" transform="matrix(1.00, 0.00, -0.00, -1.00, 332.9, 299.0)">d</text><text xml:space="preserve" font-family="Helvetica-Light,Helvetica" font-size="29.0" fill="#000000" transform="matrix(1.00, 0.00, -0.00, -1.00, 350.6, 299.0)">e</text><text xml:space="preserve" font-family="Helvetica-Light,Helvetica" font-size="29.0" fill="#000000" transform="matrix(1.00, 0.00, -0.00, -1.00, 366.7, 299.0)">s</text><text xml:space="preserve" font-family="Helvetica-Light,Helvetica" font-size="29.0" fill="#000000" transform="matrix(1.00, 0.00, -0.00, -1.00, 381.2, 299.0)">a</text><text xml:space="preserve" font-family="Helvetica-Light,Helvetica" font-size="29.0" fill="#000000" transform="matrix(1.00, 0.00, -0.00, -1.00, 397.4, 299.0)">r</text><text xml:space="preserve" font-family="Helvetica-Light,Helvetica" font-size="29.0" fill="#000000" transform="matrix(1.00, 0.00, -0.00, -1.00, 407.0, 299.0)">r</text><text xml:space="preserve" font-family="Helvetica-Light,Helvetica" font-size="29.0" fill="#000000" transform="matrix(1.00, 0.00, -0.00, -1.00, 416.2, 299.0)">o</text><text xml:space="preserve" font-family="Helvetica-Light,Helvetica" font-size="29.0" fill="#000000" transform="matrix(1.00, 0.00, -0.00, -1.00, 432.3, 299.0)">l</text><text xml:space="preserve" font-family="Helvetica-Light,Helvetica" font-size="29.0" fill="#000000" transform="matrix(1.00, 0.00, -0.00, -1.00, 438.7, 299.0)">l</text><text xml:space="preserve" font-family="Helvetica-Light,Helvetica" font-size="29.0" fill="#000000" transform="matrix(1.00, 0.00, -0.00, -1.00, 445.2, 299.0)">o</text><image xlink:href="92777A60AE70F630149A0BDB4F64834B.png" width="800.00" height="600.00" transform="matrix(0.40, 0.00, -0.00, -0.40, 687.0, 436.1)"></image><text xml:space="preserve" font-family="HelveticaNeue-Light,Helvetica Neue" font-size="28.0" fill="#FEFFFE" transform="matrix(1.00, 0.00, -0.00, -1.00, 848.3, 4.9)">#</text><text xml:space="preserve" font-family="HelveticaNeue-Light,Helvetica Neue" font-size="28.0" fill="#FEFFFE" transform="matrix(1.00, 0.00, -0.00, -1.00, 863.9, 4.9)">D</text><text xml:space="preserve" font-family="HelveticaNeue-Light,Helvetica Neue" font-size="28.0" fill="#FEFFFE" transform="matrix(1.00, 0.00, -0.00, -1.00, 883.1, 4.9)">e</text><text xml:space="preserve" font-family="HelveticaNeue-Light,Helvetica Neue" font-size="28.0" fill="#FEFFFE" transform="matrix(1.00, 0.00, -0.00, -1.00, 897.6, 4.9)">v</text><text xml:space="preserve" font-family="HelveticaNeue-Light,Helvetica Neue" font-size="28.0" fill="#FEFFFE" transform="matrix(1.00, 0.00, -0.00, -1.00, 910.6, 4.9)">F</text><text xml:space="preserve" font-family="HelveticaNeue-Light,Helvetica Neue" font-size="28.0" fill="#FEFFFE" transform="matrix(1.00, 0.00, -0.00, -1.00, 925.6, 4.9)">e</text><text xml:space="preserve" font-family="HelveticaNeue-Light,Helvetica Neue" font-size="28.0" fill="#FEFFFE" transform="matrix(1.00, 0.00, -0.00, -1.00, 940.1, 4.9)">s</text><text xml:space="preserve" font-family="HelveticaNeue-Light,Helvetica Neue" font-size="28.0" fill="#FEFFFE" transform="matrix(1.00, 0.00, -0.00, -1.00, 953.6, 4.9)">t</text><text xml:space="preserve" font-family="HelveticaNeue-Light,Helvetica Neue" font-size="28.0" fill="#FEFFFE" transform="matrix(1.00, 0.00, -0.00, -1.00, 961.9, 4.9)">G</text><text xml:space="preserve" font-family="HelveticaNeue-Light,Helvetica Neue" font-size="28.0" fill="#FEFFFE" transform="matrix(1.00, 0.00, -0.00, -1.00, 982.6, 4.9)">R</text><text xml:space="preserve" font-family="HelveticaNeue-Light,Helvetica Neue" font-size="28.0" fill="#FEFFFE" transform="matrix(1.00, 0.00, -0.00, -1.00, 1001.3, 4.9)">X</text></g></svg>